<?xml version="1.0" encoding="UTF-8" standalone="no"?>
<!-- Created with Inkscape (http://www.inkscape.org/) -->

<svg
   version="1.1"
   id="svg2"
   xml:space="preserve"
   width="3333.3333"
   height="3333.3333"
   viewBox="0 0 3333.3333 3333.3333"
   sodipodi:docname="bwink_ppl_06_single_01.svg"
   inkscape:version="1.1.2 (0a00cf5339, 2022-02-04)"
   xmlns:inkscape="http://www.inkscape.org/namespaces/inkscape"
   xmlns:sodipodi="http://sodipodi.sourceforge.net/DTD/sodipodi-0.dtd"
   xmlns="http://www.w3.org/2000/svg"
   xmlns:svg="http://www.w3.org/2000/svg"><defs
     id="defs6" /><sodipodi:namedview
     id="namedview4"
     pagecolor="#505050"
     bordercolor="#eeeeee"
     borderopacity="1"
     inkscape:pageshadow="0"
     inkscape:pageopacity="0"
     inkscape:pagecheckerboard="0"
     showgrid="false"
     inkscape:zoom="0.085350002"
     inkscape:cx="1142.355"
     inkscape:cy="1224.3702"
     inkscape:window-width="1440"
     inkscape:window-height="741"
     inkscape:window-x="0"
     inkscape:window-y="0"
     inkscape:window-maximized="1"
     inkscape:current-layer="g10" /><g
     id="g8"
     inkscape:groupmode="layer"
     inkscape:label="ink_ext_XXXXXX"
     transform="matrix(1.3333333,0,0,-1.3333333,0,3333.3333)"><g
       id="g10"
       transform="scale(0.1)"><path
         d="m 19948.1,20560.1 c 333.5,-53.2 597.9,-339.7 601.3,-700.7 3.3,-344.8 -247.4,-646.8 -586.9,-707.6 -117.9,-21.2 -233,-12.2 -338.4,20.4 -5.7,1.8 -9.8,-5.2 -5.4,-9.3 59.3,-55.3 114.1,-109.8 135.5,-158.4 -25.7,-119.6 -49.8,-195.9 -106.9,-292.7 29.6,-4.8 59.5,-8.6 89.7,-11.1 l 94,-288.2 276.3,25.9 38.8,300.6 c 62.8,17.5 123.5,39.8 181.3,67 l 225.2,-202.3 226.3,160.6 -116.7,279.8 c 45.1,46 86.3,95.7 123.2,148.6 l 296.6,-62.6 115.6,252.2 -240.6,183.6 c 15.9,61.9 26.6,125.6 32.1,190.7 l 288.1,94 -25.9,276.3 -300.6,38.7 c -17.4,62.9 -39.8,123.6 -67,181.4 l 202.3,225.2 -160.6,226.3 -279.7,-116.7 c -46.1,45.1 -95.8,86.3 -148.7,123.2 l 62.6,296.6 -252.2,115.6 -183.6,-240.6 c -32.1,8.3 -64.8,15.1 -97.9,20.5 -25.3,-57.6 -133.7,-163.4 -133.7,-183.7 -0.1,-22.6 45.8,-161.6 55.9,-253.3"
         style="fill:#ffffff;fill-opacity:1;fill-rule:nonzero;stroke:none"
         id="path14" /><path
         d="m 19913.6,20809.5 z m -231.3,-2080.7 c 19.2,-2.6 38.1,-4.7 56.5,-6.2 8.9,-0.8 16.4,-6.7 19.1,-15.1 l 88.6,-271.4 241.2,22.6 36.5,283.1 c 1.2,8.8 7.4,16.1 16,18.4 61.7,17.2 121.5,39.2 177.9,65.7 8,3.7 17.5,2.4 24,-3.6 l 212.1,-190.5 197.6,140.3 -109.9,263.5 c -3.4,8.1 -1.6,17.5 4.6,23.8 44.1,45.1 84.8,94.2 120.8,145.9 5.1,7.3 14,10.8 22.6,9 l 279.4,-59 101,220.2 -226.6,172.9 c -7.1,5.4 -10.2,14.5 -8,23 15.5,60.2 26.1,123.1 31.4,187 0.8,8.9 6.7,16.4 15.1,19.1 l 271.4,88.6 -22.6,241.2 -283.1,36.5 c -8.8,1.1 -16,7.4 -18.4,16 -17.2,61.8 -39.2,121.6 -65.7,177.9 -3.7,8 -2.3,17.4 3.6,24 l 190.5,212.1 -140.2,197.6 -263.5,-109.9 c -8.2,-3.4 -17.6,-1.6 -23.9,4.5 -45.1,44.2 -94.2,84.8 -145.9,120.9 -7.3,5.1 -10.8,14 -9,22.6 l 59.1,279.4 -220.3,101 -172.9,-226.6 c -5.4,-7.1 -14.5,-10.2 -23,-8 -25.8,6.6 -52.7,12.5 -80.2,17.4 -17.9,-31.5 -49.9,-69.6 -78.5,-103.8 -17.1,-20.3 -40,-47.7 -45.2,-57.7 1.3,-9.9 8.8,-38.2 15.5,-63.5 12.9,-48.9 30.2,-114.3 38,-168.6 347.4,-63.3 600.2,-363.3 603.5,-719.5 3.4,-353.5 -256.7,-667.1 -605,-729.5 -96.5,-17.3 -192.6,-15.7 -286.4,4.7 40.9,-40.6 77,-81.9 94.4,-121.5 1.8,-4.2 2.3,-8.9 1.3,-13.5 -23.1,-107.4 -44.9,-182.3 -93.4,-271 z m 148.7,-338.3 c -9.5,0 -18,6.1 -20.9,15.2 l -89.5,274.3 c -25.1,2.5 -50.9,5.8 -76.8,10 -7.2,1.2 -13.3,5.8 -16.4,12.4 -3.1,6.6 -2.8,14.3 0.9,20.5 55.8,94.5 78.9,168.9 102.8,278.9 -22.6,45.2 -77.4,98.4 -127.4,145 -9.5,8.9 -11.6,22.8 -5.2,34 6.5,11.2 19.7,16.3 32.1,12.5 106.6,-33.1 217,-39.8 328,-19.9 327.4,58.7 572,353.5 568.8,685.8 -3.2,340.2 -248.3,625.8 -582.8,679.2 -9.8,1.6 -17.3,9.5 -18.4,19.3 -5.9,53.8 -24.9,126.1 -38.9,178.8 -11.6,44 -17.2,65.6 -17.2,77 0.1,16.5 14.4,34.4 55.8,83.7 30.1,35.9 67.5,80.6 79.9,108.8 4,9.2 13.8,14.5 23.7,12.8 29.2,-4.8 57.9,-10.6 85.6,-17.3 l 174.8,229.1 c 6.3,8.2 17.4,10.9 26.7,6.6 l 252.2,-115.6 c 9.4,-4.3 14.5,-14.5 12.4,-24.6 l -59.7,-282.4 c 45.4,-32.5 88.7,-68.4 129.1,-106.9 l 266.4,111.1 c 9.5,4 20.4,0.8 26.4,-7.6 l 160.6,-226.3 c 5.9,-8.3 5.3,-19.7 -1.6,-27.4 l -192.6,-214.4 c 22.8,-50.3 42.3,-103.1 58.1,-157.5 l 286.2,-36.9 c 10.2,-1.3 18.1,-9.5 19.1,-19.8 l 25.9,-276.2 c 1,-10.3 -5.3,-19.8 -15.1,-23 l -274.3,-89.5 c -5.4,-56.4 -14.7,-111.9 -27.8,-165.6 l 229.1,-174.8 c 8.2,-6.3 10.9,-17.3 6.6,-26.7 l -115.6,-252.2 c -4.3,-9.4 -14.6,-14.5 -24.6,-12.4 l -282.4,59.7 c -32.5,-45.4 -68.4,-88.7 -106.9,-129 l 111.1,-266.4 c 4,-9.5 0.8,-20.5 -7.6,-26.5 l -226.3,-160.5 c -8.3,-6 -19.7,-5.4 -27.4,1.5 l -214.4,192.6 c -50.3,-22.8 -103.2,-42.3 -157.5,-58.1 l -36.9,-286.2 c -1.3,-10.2 -9.5,-18.1 -19.8,-19.1 l -276.3,-25.9 c -0.6,0 -1.3,-0.1 -2,-0.1"
         style="fill:#000000;fill-opacity:1;fill-rule:nonzero;stroke:none"
         id="path16" /><path
         d="m 18392.3,20589.9 -115.7,-252.2 240.6,-183.7 c -15.9,-61.9 -26.6,-125.6 -32.1,-190.6 l -288.1,-94 25.9,-276.3 300.6,-38.8 c 17.5,-62.9 39.8,-123.5 67,-181.4 l -202.3,-225.2 160.6,-226.3 279.7,116.8 c 46.1,-45.1 95.8,-86.3 148.7,-123.2 l -62.6,-296.6 252.2,-115.7 183.6,240.6 c 33.2,-8.5 66.9,-15.4 101,-20.9 38.9,93.3 125.1,248.8 125.1,286.6 -1.8,12.7 -106.1,120.6 -172.3,181.8 -255.7,89.2 -449.3,320.5 -476.2,607.8 -36.9,392.7 251.7,741 644.4,777.9 61.4,5.7 121.6,3.5 179.8,-5.7 -10.1,91.6 -45.1,232.6 -29.6,260.6 30.1,54.4 82.1,118.6 107.4,176.3 -30.6,5.1 -61.5,9 -92.8,11.6 l -94,288.1 -276.3,-25.9 -38.7,-300.6 c -62.9,-17.4 -123.6,-39.8 -181.4,-66.9 l -225.2,202.2 -226.3,-160.5 116.8,-279.8 c -45.2,-46.1 -86.4,-95.8 -123.2,-148.7 l -296.6,62.7"
         style="fill:#ffffff;fill-opacity:1;fill-rule:nonzero;stroke:none"
         id="path18" /><path
         d="m 18939.7,18631.1 220.3,-101 172.9,226.6 c 5.4,7 14.5,10.1 23,7.9 26.2,-6.7 53.8,-12.6 82.1,-17.6 14,31.9 32,69.1 49.6,105.3 26.3,54.3 61.8,127.4 66.4,152.1 -15.7,22.1 -96.5,106.9 -161.4,167.1 -269.1,95.8 -459.9,340.7 -486.5,625 -18.4,195.8 40.6,387.1 166,538.5 125.5,151.5 302.5,245 498.3,263.4 52.2,4.9 104.7,4.3 156.3,-1.9 -3.5,24.3 -8,50.8 -12.5,76.7 -15.8,91.8 -24.1,145 -10.8,168.9 12.7,23 28.6,46.9 45.5,72.1 16.9,25.4 34.3,51.4 48,76.3 -20.6,2.9 -41.2,5.2 -61.5,6.9 -8.8,0.7 -16.3,6.7 -19.1,15.1 l -88.5,271.3 -241.3,-22.6 -36.5,-283.1 c -1.1,-8.8 -7.4,-16 -15.9,-18.4 -61.8,-17.1 -121.6,-39.2 -177.9,-65.6 -8.1,-3.8 -17.5,-2.4 -24.1,3.5 l -212.1,190.5 -197.6,-140.2 110,-263.5 c 3.4,-8.2 1.6,-17.6 -4.6,-23.9 -44.1,-45 -84.8,-94.1 -120.9,-145.9 -5,-7.2 -13.9,-10.8 -22.6,-8.9 l -279.4,59 -101,-220.2 226.6,-173 c 7.1,-5.4 10.2,-14.4 8,-23 -15.5,-60.2 -26.1,-123.1 -31.4,-187 -0.8,-8.8 -6.7,-16.3 -15.1,-19.1 l -271.4,-88.5 22.6,-241.2 283.1,-36.6 c 8.8,-1.1 16.1,-7.4 18.4,-15.9 17.1,-61.7 39.2,-121.6 65.7,-177.9 3.8,-8 2.4,-17.5 -3.6,-24.1 l -190.5,-212.1 140.3,-197.6 263.5,110 c 8.1,3.4 17.5,1.6 23.8,-4.6 45.1,-44.1 94.2,-84.8 145.9,-120.8 7.3,-5.1 10.8,-14 9,-22.7 z m 227.1,-150.4 c -3.1,0 -6.3,0.6 -9.2,2 l -252.2,115.7 c -9.4,4.3 -14.5,14.5 -12.4,24.5 l 59.7,282.5 c -45.4,32.4 -88.7,68.3 -129,106.9 l -266.4,-111.2 c -9.5,-3.9 -20.5,-0.8 -26.5,7.6 l -160.5,226.3 c -6,8.4 -5.3,19.8 1.5,27.4 l 192.6,214.5 c -22.8,50.3 -42.3,103.1 -58.1,157.4 l -286.2,37 c -10.2,1.3 -18.1,9.5 -19.1,19.7 l -25.9,276.3 c -1,10.2 5.3,19.8 15.1,23 l 274.3,89.5 c 5.4,56.3 14.8,111.8 27.8,165.5 l -229.1,174.9 c -8.2,6.2 -10.9,17.3 -6.6,26.6 l 115.6,252.2 c 4.4,9.4 14.7,14.5 24.6,12.4 l 282.4,-59.7 c 32.5,45.4 68.4,88.7 107,129.1 l -111.2,266.4 c -4,9.5 -0.8,20.5 7.6,26.4 l 226.3,160.6 c 8.4,5.9 19.8,5.3 27.4,-1.6 l 214.4,-192.6 c 50.3,22.9 103.2,42.3 157.5,58.1 l 36.9,286.2 c 1.3,10.2 9.5,18.1 19.8,19.1 l 276.3,25.9 c 10.2,1 19.8,-5.3 23,-15.1 l 89.5,-274.3 c 26.4,-2.5 53.2,-6 79.9,-10.4 6.7,-1.1 12.6,-5.3 15.8,-11.3 3.2,-5.9 3.5,-13.1 0.8,-19.3 -15.8,-35.9 -40.7,-73.1 -64.7,-109.1 -16.3,-24.5 -31.7,-47.6 -43.6,-69 -5.9,-14.6 7.1,-90.2 15.7,-140.2 6.4,-36.9 12.9,-75.1 16.5,-107.4 0.7,-6.9 -1.7,-13.6 -6.7,-18.4 -5,-4.7 -11.8,-6.9 -18.7,-5.8 -57.2,9.2 -115.9,11 -174.2,5.6 -184.1,-17.3 -350.5,-105.2 -468.5,-247.7 -117.9,-142.3 -173.4,-322.2 -156.1,-506.3 25.2,-268.8 206.4,-500 461.5,-589.1 2.9,-0.9 5.5,-2.5 7.7,-4.6 1.8,-1.6 174.9,-164.1 179.2,-194.9 0.1,-1 0.2,-2 0.2,-3.1 0,-27.4 -27.1,-84.7 -71.3,-175.9 -20.3,-41.8 -41.3,-85.1 -55.5,-119.1 -3.9,-9.4 -13.8,-14.9 -23.8,-13.3 -30.5,5 -60.3,11 -88.7,17.8 l -174.9,-229 c -4.3,-5.6 -10.8,-8.7 -17.5,-8.7"
         style="fill:#000000;fill-opacity:1;fill-rule:nonzero;stroke:none"
         id="path20" /><path
         d="m 14620.7,16526.1 21,-474.4 509.8,-91.5 c 24.1,-106.6 57.7,-212 100.2,-315.3 l -365.1,-368.3 255.4,-400.3 487.8,175.9 c 75.8,-82.1 157.2,-157 243.7,-223.8 l -131.9,-500.9 421.3,-218.9 334.7,396.3 c 105.3,-32.7 213.2,-56.5 322.6,-71.3 l 136.4,-500.5 474.3,21 91.6,509.8 c 106.6,24.1 212,57.7 315.2,100.2 l 32.1,13.9 c 7.4,159.9 -20.2,206.1 -18.2,242.6 -162.5,31.6 -477.5,90.1 -477.5,90.1 -32.6,82.7 -31.4,188.2 -56.5,286.9 -500.5,-96.8 -1033.2,126.7 -1300.7,605.7 -287.8,515.4 -161,1172.9 298.3,1543.7 146.9,118.7 310.7,196.5 479.4,237.8 37.9,116.8 86,230.1 156.8,334.6 -172.3,-27.6 -365.7,12.9 -539.6,-9.6 -10.4,-1.3 -19.3,6.9 -18.5,17.4 8,109 11.1,220.5 12,332 -24.4,-9 -48.6,-18.3 -72.8,-28.3 l -368.3,365.1 -400.3,-255.3 175.9,-487.9 c -82.1,-75.7 -157,-157.1 -223.8,-243.6 l -500.9,131.9 -218.9,-421.3 396.3,-334.7 c -32.7,-105.4 -56.5,-213.3 -71.3,-322.6 l -500.5,-136.4"
         style="fill:#ffffff;fill-opacity:1;fill-rule:nonzero;stroke:none"
         id="path22" /><path
         d="m 16497.6,14526.9 c 2.1,0 4.3,-0.3 6.5,-1 103.9,-32.2 211.3,-55.9 319,-70.5 8.8,-1.2 16,-7.5 18.3,-16 l 131.8,-483.5 439.2,19.4 88.4,492.5 c 1.6,8.7 8.2,15.6 16.8,17.6 104.8,23.7 209.6,57 311.8,99.1 l 19,8.2 c 3.4,96 -6.5,146.9 -13.1,181.1 -2,10.5 -3.8,19.7 -4.9,28.4 -164.6,32 -457.3,86.3 -460.3,86.8 -7.4,1.4 -13.7,6.5 -16.5,13.6 -19.7,50.1 -27.4,105.8 -35.5,164.8 -4.7,34.6 -9.6,70.2 -17.1,104.7 -522.1,-91.9 -1043.7,155.6 -1303.3,620.5 -291.1,521.1 -160.5,1196.8 303.7,1571.6 141.3,114.1 301.4,194.5 476,239 37.5,113 79.3,206.1 129.9,288.5 -77.5,-7.3 -158.2,-3.9 -236.7,-0.5 -85.7,3.6 -174.3,7.4 -255.9,-3.2 -11.6,-1.5 -23.2,2.2 -31.6,10.2 -8.4,7.9 -12.7,19.1 -11.8,30.6 6.6,88.8 10.3,184.4 11.7,298.5 -14.6,-5.6 -28.6,-11.2 -42.1,-16.7 -8.2,-3.4 -17.6,-1.5 -23.9,4.7 l -355.8,352.7 -370.6,-236.4 169.9,-471.3 c 3,-8.4 0.7,-17.7 -5.8,-23.7 -81.2,-74.9 -155.7,-156 -221.2,-240.9 -5.5,-7 -14.5,-10.1 -23.1,-7.8 l -483.8,127.4 -202.8,-390.1 382.9,-323.3 c 6.8,-5.7 9.4,-14.9 6.8,-23.3 -32.2,-103.8 -55.9,-211.2 -70.5,-319.1 -1.2,-8.7 -7.5,-15.9 -16,-18.2 l -483.5,-131.9 19.4,-439.1 492.5,-88.4 c 8.7,-1.6 15.6,-8.2 17.6,-16.9 23.7,-104.6 57,-209.5 99.1,-311.7 3.4,-8.2 1.5,-17.6 -4.7,-23.9 l -352.8,-355.8 236.5,-370.6 471.3,169.9 c 8.3,3 17.6,0.7 23.6,-5.8 74.9,-81.2 156,-155.7 241,-221.2 7,-5.4 10,-14.5 7.8,-23.1 l -127.4,-483.8 390,-202.8 323.3,382.9 c 4.3,5 10.5,7.8 16.9,7.8 z m 459,-615.8 c -9.9,0 -18.6,6.6 -21.2,16.2 l -132.6,486.5 c -100.5,14.3 -200.6,36.4 -297.8,65.8 l -325.3,-385.2 c -6.6,-7.9 -17.8,-10.1 -27,-5.4 l -421.3,219 c -9.1,4.8 -13.7,15.2 -11.1,25.2 l 128.2,486.8 c -78.9,61.9 -154.5,131.3 -224.9,206.6 l -474.1,-171 c -9.8,-3.5 -20.5,0.2 -26.1,8.9 l -255.4,400.3 c -5.5,8.7 -4.3,20 3,27.3 l 354.9,358 c -38.6,95.5 -69.7,193.3 -92.6,291 l -495.5,88.9 c -10.1,1.9 -17.6,10.4 -18.1,20.7 l -21,474.4 c -0.4,10.3 6.3,19.5 16.2,22.2 l 486.5,132.6 c 14.3,100.6 36.5,200.6 65.8,297.8 l -385.2,325.2 c -7.9,6.7 -10.1,17.9 -5.4,27 l 219,421.3 c 4.8,9.1 15.2,13.8 25.2,11.1 l 486.8,-128.2 c 61.9,79 131.3,154.6 206.6,224.9 l -171,474.2 c -3.5,9.7 0.2,20.5 8.9,26 l 400.3,255.4 c 8.6,5.5 20,4.3 27.3,-2.9 l 358,-354.9 c 18.9,7.6 38.6,15.2 60,23 6.8,2.5 14.3,1.5 20.2,-2.6 5.9,-4.2 9.4,-11 9.4,-18.2 -1,-126.4 -4.7,-230.4 -11.6,-326.5 83.5,10 171.5,6.3 256.8,2.7 92.5,-4 188.1,-8 275.4,5.9 8.8,1.4 17.3,-2.5 22.1,-9.9 4.7,-7.4 4.5,-16.9 -0.4,-24.1 -61.9,-91.4 -110.8,-195.9 -154.1,-329.1 -2.3,-7.3 -8.3,-12.8 -15.7,-14.6 -172.9,-42.3 -331.3,-120.9 -470.8,-233.5 -447.7,-361.5 -573.6,-1013.2 -292.9,-1515.9 253.8,-454.4 767.1,-693.5 1277.3,-594.8 11.4,2.2 22.6,-4.9 25.5,-16.2 11,-43.1 17,-87.1 22.8,-129.6 7.2,-51.7 13.9,-100.8 28.7,-143.4 59.8,-11.1 322.8,-60.1 465.4,-87.8 10.8,-2.1 18.4,-11.9 17.8,-22.9 -0.5,-9.2 1.8,-20.9 4.9,-37.1 7.3,-37.9 18.4,-95 13.3,-205.3 -0.4,-8.4 -5.5,-15.8 -13.3,-19.2 l -32.1,-13.8 c -100,-41.2 -202.4,-74.2 -304.8,-98.2 l -89,-495.5 c -1.8,-10.1 -10.4,-17.6 -20.7,-18.1 l -474.3,-21 c -0.4,0 -0.7,0 -1,0"
         style="fill:#000000;fill-opacity:1;fill-rule:nonzero;stroke:none"
         id="path24" /><path
         d="m 17161.1,18096.3 c -60.8,-96.5 -103.8,-200 -138.3,-306.4 494.4,121 1032.1,-76.9 1321,-529.9 363.1,-569.1 196.1,-1324.8 -373.1,-1687.8 -133.8,-85.4 -278,-141.1 -424.9,-169.5 21,-96.6 31.3,-194.1 56.5,-286.9 4,-14.7 417,-99.2 428.5,-105.4 15.7,-3 18.3,-144.9 42.2,-255.2 l 361.2,-351.1 400.3,255.4 -175.8,487.9 c 82.1,75.7 156.9,157.1 223.7,243.6 l 500.9,-131.9 219,421.3 -396.3,334.7 c 32.6,105.4 56.5,213.3 71.3,322.6 l 500.5,136.4 -21,474.3 -509.8,91.6 c -24.1,106.6 -57.7,212 -100.3,315.3 l 365.2,368.2 -255.4,400.3 -487.9,-175.8 c -75.7,82.1 -157.1,156.9 -243.6,223.7 l 131.9,500.9 -421.3,219 -334.7,-396.3 c -105.4,32.6 -213.3,56.5 -322.6,71.3 l -136.4,500.5 -474.4,-21 -91.5,-509.9 c -81.7,-18.4 -162.6,-42.6 -242.5,-71.9 -0.8,-111.2 -3.9,-222.4 -12,-331.1 -0.8,-11 8.5,-19.5 19.4,-18.1 162.5,20.8 342,-13.2 505.3,4.9 13.2,1.5 22,-12.5 14.9,-23.7"
         style="fill:#ffffff;fill-opacity:1;fill-rule:nonzero;stroke:none"
         id="path26" /><path
         d="m 17161.1,18096.3 h 0.3 z m 865.5,-3107.5 h 0.1 z m 66.6,-222.5 343.9,-334.2 370.8,236.5 -169.9,471.3 c -3,8.3 -0.7,17.6 5.8,23.6 81.2,74.9 155.6,156 221.2,241 5.4,7 14.5,10.1 23,7.8 l 483.9,-127.4 202.8,390.1 -382.9,323.3 c -6.8,5.7 -9.5,14.9 -6.8,23.3 32.2,103.9 55.9,211.3 70.5,319 1.2,8.8 7.5,16 16,18.3 l 483.5,131.8 -19.5,439.2 -492.4,88.4 c -8.8,1.6 -15.7,8.2 -17.6,16.8 -23.7,104.7 -57,209.6 -99.1,311.8 -3.4,8.2 -1.5,17.6 4.7,23.9 l 352.7,355.7 -236.4,370.7 -471.3,-169.9 c -8.3,-3 -17.7,-0.8 -23.6,5.7 -75,81.3 -156,155.7 -241,221.3 -7,5.4 -10.1,14.5 -7.8,23 l 127.4,483.9 -390.1,202.8 -323.3,-382.9 c -5.7,-6.8 -14.9,-9.4 -23.3,-6.8 -103.9,32.1 -211.2,55.9 -319,70.5 -8.8,1.2 -16,7.5 -18.3,16 l -131.8,483.5 -439.2,-19.5 -88.4,-492.5 c -1.6,-8.7 -8.2,-15.6 -16.8,-17.5 -74.9,-17 -150.7,-39.1 -225.5,-66 -1.1,-119.5 -4.8,-218.9 -11.5,-311.2 83.5,10 171.6,6.3 256.8,2.7 81.2,-3.5 165.1,-7.1 243.1,1.6 14.6,1.6 28.4,-5.1 36.1,-17.4 7.7,-12.3 7.7,-27.6 -0.1,-40 v 0 c -48.1,-76.2 -87.8,-161 -123.7,-264.4 505.9,107 1026.8,-110 1306.3,-548.2 178.8,-280.2 237.7,-613.3 165.9,-937.8 -71.7,-324.6 -265.5,-601.8 -545.7,-780.5 -126.4,-80.6 -264.5,-137.1 -410.7,-168.1 6.6,-32.9 12.3,-65.8 17.8,-97.9 9.3,-54.5 18.2,-106.2 31.5,-157.1 37.3,-13.7 204.1,-50.7 296.4,-71.2 89.7,-19.9 111.6,-24.9 119.7,-27.8 22.2,-5.9 25.2,-33.1 34.6,-116.7 5,-44.7 11.2,-99.9 21.3,-148.5 z m 341,-384.2 c -5.5,0 -11.1,2.1 -15.3,6.2 l -361.2,351.1 c -3.1,3 -5.2,6.9 -6.2,11.1 -11.3,52.4 -18,111.7 -23.3,159.4 -3.4,30.4 -7.6,67.3 -11.4,81.8 -17,4.3 -63.5,14.6 -108.7,24.6 -320.9,71.2 -321.9,75.1 -327,93.7 -15.2,55.8 -25.2,114 -34.8,170.2 -6.6,38.7 -13.5,78.7 -22,117.8 -1.3,5.8 -0.2,11.8 3.1,16.8 3.3,4.9 8.4,8.4 14.2,9.5 148.9,28.8 289.3,84.8 417.3,166.4 270.3,172.4 457.3,439.8 526.5,752.9 69.2,313 12.3,634.3 -160.1,904.6 -276.5,433.5 -797.9,642.6 -1297.3,520.3 -7.7,-1.9 -15.9,0.6 -21.3,6.4 -5.5,5.9 -7.3,14.2 -4.8,21.8 38.6,118.8 81.2,214.6 133.6,300.1 -77.3,-7.3 -158.2,-3.9 -236.7,-0.5 -85.3,3.6 -173.6,7.4 -255.1,-3.1 -11.8,-1.5 -23.5,2.3 -32.1,10.4 -8.5,8.1 -12.9,19.4 -12,31.2 7.1,96.9 10.9,201.6 11.9,329.6 0,9.2 5.8,17.4 14.4,20.5 76.5,28.2 154.1,51.5 231,69.5 l 89,495.5 c 1.8,10.2 10.4,17.7 20.7,18.2 l 474.3,20.9 c 10,0.5 19.5,-6.2 22.2,-16.2 l 132.6,-486.4 c 100.6,-14.4 200.6,-36.5 297.8,-65.8 l 325.3,385.2 c 6.6,7.9 17.8,10.1 26.9,5.3 l 421.3,-219 c 9.2,-4.7 13.8,-15.1 11.2,-25.1 l -128.2,-486.8 c 78.9,-62 154.5,-131.3 224.9,-206.6 l 474.1,170.9 c 9.7,3.5 20.5,-0.1 26,-8.8 l 255.4,-400.3 c 5.6,-8.7 4.3,-20.1 -2.9,-27.4 l -354.9,-357.9 c 38.6,-95.5 69.6,-193.3 92.5,-291 l 495.5,-89 c 10.2,-1.8 17.7,-10.4 18.2,-20.7 l 21,-474.3 c 0.4,-10.3 -6.3,-19.5 -16.2,-22.2 l -486.5,-132.6 c -14.3,-100.5 -36.5,-200.5 -65.8,-297.8 l 385.2,-325.3 c 7.9,-6.6 10.1,-17.8 5.3,-26.9 l -218.9,-421.3 c -4.8,-9.2 -15.2,-13.8 -25.2,-11.2 l -486.8,128.2 c -62,-78.9 -131.4,-154.5 -206.6,-224.9 l 170.9,-474.1 c 3.5,-9.7 -0.2,-20.5 -8.8,-26.1 l -400.3,-255.3 c -3.7,-2.4 -7.8,-3.5 -11.9,-3.5"
         style="fill:#000000;fill-opacity:1;fill-rule:nonzero;stroke:none"
         id="path28" /><path
         d="m 19616.2,14864.7 c -4.1,0 -8.3,1.2 -12.1,3.7 -10.1,6.7 -12.9,20.4 -6.2,30.5 24.1,36.3 47.6,73.6 69.9,110.9 6.2,10.4 19.8,13.8 30.2,7.6 10.4,-6.3 13.8,-19.8 7.5,-30.2 -22.6,-37.9 -46.5,-75.7 -70.9,-112.6 -4.2,-6.4 -11.2,-9.9 -18.4,-9.9"
         style="fill:#000000;fill-opacity:1;fill-rule:nonzero;stroke:none"
         id="path30" /><path
         d="m 19273.5,14439.1 c -5.5,0 -11,2 -15.3,6.2 -8.7,8.5 -8.9,22.4 -0.5,31.1 62.9,64.7 123.4,133.1 180,203.4 7.6,9.4 21.5,10.9 30.9,3.3 9.5,-7.6 11,-21.5 3.4,-31 -57.5,-71.3 -118.9,-140.7 -182.7,-206.4 -4.3,-4.4 -10,-6.6 -15.8,-6.6 z m -415.4,-355 c -6.9,0 -13.8,3.2 -18,9.3 -7.1,9.9 -4.7,23.7 5.3,30.7 73.7,51.9 145.8,108 214.4,166.5 9.2,7.9 23.1,6.9 31,-2.4 7.9,-9.2 6.8,-23.1 -2.5,-31 -69.5,-59.5 -142.8,-116.4 -217.6,-169.1 -3.8,-2.7 -8.2,-4 -12.6,-4 z m -474.1,-271.8 c -8.4,0 -16.4,4.8 -20,12.9 -5.1,11.1 -0.2,24.2 10.9,29.2 82,37.3 163.3,78.9 241.5,123.8 10.6,6.1 24,2.4 30.1,-8.1 6,-10.6 2.4,-24 -8.2,-30.1 -79.4,-45.5 -161.9,-87.8 -245.2,-125.7 -2.9,-1.3 -6,-2 -9.1,-2 z m -516.3,-178.4 c -9.9,0 -18.9,6.7 -21.4,16.8 -2.8,11.8 4.4,23.7 16.2,26.6 87.6,21.3 175.2,47 260.4,76.5 11.4,3.9 24,-2.1 28,-13.6 3.9,-11.5 -2.2,-24.1 -13.7,-28 -86.4,-29.9 -175.4,-56 -264.3,-77.7 -1.7,-0.4 -3.5,-0.6 -5.2,-0.6 z m -540.6,-78.9 c -11.6,0 -21.3,9.1 -21.9,20.9 -0.7,12.1 8.7,22.5 20.8,23.1 90.2,4.7 181.1,13.6 270.2,26.6 11.9,1.8 23.2,-6.5 25,-18.6 1.7,-12 -6.6,-23.2 -18.7,-24.9 -90.4,-13.2 -182.6,-22.3 -274.2,-27 -0.4,-0.1 -0.8,-0.1 -1.2,-0.1 z m -273.5,-1.5 c -0.3,0 -0.6,0 -0.9,0 -91.6,3.7 -184,11.7 -274.6,23.8 -12,1.6 -20.5,12.7 -18.9,24.7 1.6,12.1 12.8,20.5 24.8,18.9 89.2,-11.9 180.2,-19.8 270.5,-23.4 12.1,-0.5 21.6,-10.8 21.1,-22.9 -0.5,-11.9 -10.2,-21.1 -22,-21.1"
         style="fill:#000000;fill-opacity:1;fill-rule:nonzero;stroke:none"
         id="path32" /><path
         d="m 16510.4,13626.4 c -1.7,0 -3.3,0.2 -5,0.6 -42.9,9.9 -86.3,21 -128.9,32.9 -11.7,3.3 -18.5,15.4 -15.3,27.2 3.3,11.7 15.4,18.5 27.2,15.2 41.9,-11.7 84.7,-22.6 126.9,-32.4 11.9,-2.8 19.2,-14.6 16.5,-26.4 -2.4,-10.2 -11.4,-17.1 -21.4,-17.1"
         style="fill:#000000;fill-opacity:1;fill-rule:nonzero;stroke:none"
         id="path34" /><path
         d="m 14280.5,16931.6 c -1.2,0 -2.3,0.1 -3.4,0.2 -12.1,1.9 -20.3,13.1 -18.4,25.2 6.8,43.8 14.7,87.9 23.4,131 2.4,11.9 14,19.6 25.9,17.2 11.9,-2.4 19.6,-14 17.2,-25.9 -8.5,-42.5 -16.3,-85.9 -23,-129.1 -1.7,-10.9 -11.1,-18.6 -21.7,-18.6"
         style="fill:#000000;fill-opacity:1;fill-rule:nonzero;stroke:none"
         id="path36" /><path
         d="m 15244.4,18681.1 c -6.1,0 -12.2,2.6 -16.6,7.6 -8,9.1 -7.1,23 2.1,31 68.5,60.1 140.6,117.6 214.4,171.1 9.8,7.1 23.6,4.9 30.7,-4.9 7.1,-9.9 4.9,-23.6 -4.9,-30.8 -72.7,-52.6 -143.7,-109.3 -211.2,-168.5 -4.2,-3.7 -9.4,-5.5 -14.5,-5.5 z m -374.2,-394.7 c -4.8,0 -9.6,1.5 -13.6,4.7 -9.6,7.5 -11.2,21.3 -3.7,30.9 56.2,71.6 116.6,141.4 179.3,207.6 8.3,8.8 22.3,9.2 31.1,0.8 8.8,-8.3 9.2,-22.3 0.8,-31.1 -61.8,-65.2 -121.2,-134 -176.6,-204.5 -4.3,-5.5 -10.8,-8.4 -17.3,-8.4 z m -295.1,-457 c -3.4,0 -6.9,0.8 -10.1,2.5 -10.8,5.7 -15,19 -9.3,29.7 42,80.8 88.4,160.6 137.9,237.1 6.6,10.3 20.2,13.2 30.4,6.6 10.2,-6.6 13.1,-20.2 6.5,-30.4 -48.7,-75.5 -94.4,-154.1 -135.8,-233.6 -3.9,-7.5 -11.6,-11.9 -19.6,-11.9 z m -205.1,-503.7 c -2.1,0 -4.2,0.3 -6.3,0.9 -11.7,3.6 -18.3,15.8 -14.8,27.5 26.3,87.1 57.1,174.1 91.5,258.6 4.6,11.3 17.4,16.7 28.7,12.1 11.2,-4.6 16.6,-17.4 12.1,-28.7 -33.9,-83.2 -64.2,-168.9 -90.1,-254.7 -2.9,-9.6 -11.6,-15.7 -21.1,-15.7"
         style="fill:#000000;fill-opacity:1;fill-rule:nonzero;stroke:none"
         id="path38" /><path
         d="m 15685.1,19000.4 c -7.5,0 -14.9,3.9 -19,10.9 -6.2,10.4 -2.7,23.9 7.8,30.1 37.9,22.5 77,44.4 116,65.1 10.8,5.8 24.1,1.7 29.8,-9.1 5.7,-10.7 1.6,-24 -9.1,-29.7 -38.5,-20.5 -76.9,-42.1 -114.3,-64.2 -3.5,-2.1 -7.4,-3.1 -11.2,-3.1"
         style="fill:#000000;fill-opacity:1;fill-rule:nonzero;stroke:none"
         id="path40" /><path
         d="m 21283.6,18941.3 c -3.6,0 -7.3,0.9 -10.6,2.8 -10.7,5.9 -14.5,19.3 -8.6,29.9 42.2,75.8 79,155.4 109.6,236.5 4.3,11.4 16.9,17.2 28.4,12.9 11.3,-4.3 17.1,-17 12.8,-28.4 -31.3,-83.1 -69.1,-164.7 -112.3,-242.4 -4,-7.2 -11.5,-11.3 -19.3,-11.3 z m -319.9,-418 c -5.7,0 -11.5,2.2 -15.8,6.6 -8.5,8.8 -8.3,22.7 0.4,31.2 62.2,60.5 120.5,126 173.2,194.9 7.4,9.7 21.2,11.5 30.8,4.1 9.7,-7.4 11.5,-21.2 4.1,-30.9 -54,-70.5 -113.7,-137.7 -177.4,-199.7 -4.2,-4.1 -9.8,-6.2 -15.3,-6.2 z m -426.4,-308.5 c -8,0 -15.6,4.3 -19.6,11.9 -5.6,10.7 -1.4,24 9.4,29.7 76.8,40 151.4,86 221.7,136.9 9.9,7.1 23.6,4.9 30.8,-4.9 7.1,-9.9 4.9,-23.6 -5,-30.8 -72,-52.1 -148.5,-99.3 -227.2,-140.3 -3.2,-1.7 -6.7,-2.5 -10.1,-2.5 z m -497.4,-171.9 c -10.4,0 -19.6,7.4 -21.6,17.9 -2.3,12 5.6,23.5 17.6,25.7 85.2,16 170,38.5 251.8,66.8 11.5,4 24.1,-2.1 28,-13.6 4,-11.5 -2.1,-24 -13.6,-28 -83.9,-29 -170.7,-52 -258.1,-68.4 -1.4,-0.3 -2.7,-0.4 -4.1,-0.4"
         style="fill:#000000;fill-opacity:1;fill-rule:nonzero;stroke:none"
         id="path42" /><path
         d="m 19292.1,21574.6 c -10,0 -19,6.8 -21.4,17 -2.8,11.8 4.6,23.7 16.4,26.4 56.9,13.4 115.3,24 173.4,31.8 12,1.6 23.1,-6.8 24.7,-18.9 1.6,-12 -6.9,-23.1 -18.9,-24.7 -56.7,-7.6 -113.6,-18 -169.2,-31 -1.7,-0.4 -3.3,-0.6 -5,-0.6 z m -489.1,-193.7 c -7.7,0 -15.1,3.9 -19.1,11 -6.1,10.5 -2.5,24 8,30 77,44.5 157.8,83.7 240.3,116.3 11.3,4.5 24.1,-1 28.6,-12.3 4.5,-11.3 -1.1,-24.1 -12.4,-28.6 -80.5,-31.9 -159.3,-70.1 -234.5,-113.5 -3.4,-2 -7.2,-2.9 -10.9,-2.9 z m -412.6,-326.8 c -5.4,0 -10.8,2 -15.1,6 -8.8,8.3 -9.3,22.3 -0.9,31.1 60.9,64.7 127.1,125.5 196.7,180.6 9.5,7.6 23.4,6 30.9,-3.5 7.6,-9.6 6,-23.4 -3.6,-31 -67.9,-53.8 -132.5,-113.1 -192,-176.3 -4.3,-4.6 -10.1,-6.9 -16,-6.9 z m -301.4,-431.6 c -3.3,0 -6.7,0.8 -9.8,2.3 -10.9,5.5 -15.3,18.7 -9.9,29.6 39.7,79.4 85.6,156.6 136.6,229.6 6.9,9.9 20.7,12.4 30.6,5.4 10,-7 12.4,-20.7 5.5,-30.6 -49.8,-71.2 -94.6,-146.6 -133.3,-224.1 -3.9,-7.7 -11.6,-12.2 -19.7,-12.2 z m -163.6,-500.3 c -1.2,0 -2.4,0.1 -3.7,0.3 -12,2.1 -20,13.4 -18,25.4 15,87.7 36.5,175 64.1,259.3 3.8,11.6 16.2,17.9 27.8,14.1 11.5,-3.8 17.8,-16.2 14.1,-27.8 -27,-82.3 -48,-167.4 -62.6,-253 -1.8,-10.7 -11.1,-18.3 -21.7,-18.3 z m -12.3,-526.2 c -11,0 -20.5,8.2 -21.9,19.3 -8.9,73.7 -13.5,148.9 -13.5,223.6 0,14.5 0.2,28.9 0.5,43.2 0.3,12.2 10.5,21.7 22.5,21.5 12.2,-0.3 21.8,-10.4 21.5,-22.5 -0.3,-14 -0.5,-28.1 -0.5,-42.2 0,-72.9 4.5,-146.3 13.2,-218.2 1.5,-12.1 -7.1,-23.1 -19.1,-24.5 -0.9,-0.2 -1.8,-0.2 -2.7,-0.2"
         style="fill:#000000;fill-opacity:1;fill-rule:nonzero;stroke:none"
         id="path44" /><path
         d="m 11197.3,16898.7 381.4,-291.4 161.4,379.1 z m 390.5,-348.1 c -4.7,0 -9.4,1.6 -13.3,4.5 l -444.6,339.6 c -7,5.4 -10.1,14.4 -8,22.9 2.2,8.5 9.2,14.9 17.8,16.3 l 632.8,102.4 c 7.9,1.3 15.9,-1.9 20.8,-8.2 4.9,-6.3 6.1,-14.8 2.9,-22.2 l -188.1,-441.9 c -2.7,-6.3 -8.1,-10.9 -14.6,-12.7 -1.9,-0.5 -3.8,-0.7 -5.7,-0.7"
         style="fill:#000000;fill-opacity:1;fill-rule:nonzero;stroke:none"
         id="path46" /><path
         d="m 11716.1,17404.7 c -0.8,0 -1.7,0 -2.6,0.1 -12,1.4 -20.7,12.3 -19.3,24.4 l 386.3,3350.2 c 1.4,12 12.3,20.7 24.4,19.3 12.1,-1.4 20.7,-12.3 19.4,-24.4 l -386.4,-3350.1 c -1.3,-11.3 -10.8,-19.5 -21.8,-19.5"
         style="fill:#000000;fill-opacity:1;fill-rule:nonzero;stroke:none"
         id="path48" /><path
         d="m 11071,17437.4 c -9.3,0 -17.9,6 -20.9,15.3 l -738,2314 c -3.7,11.6 2.7,24 14.2,27.7 11.6,3.7 24,-2.7 27.7,-14.3 l 738,-2314 c 3.7,-11.6 -2.7,-24 -14.3,-27.7 -2.2,-0.7 -4.4,-1 -6.7,-1"
         style="fill:#000000;fill-opacity:1;fill-rule:nonzero;stroke:none"
         id="path50" /><path
         d="m 10556.8,17226.8 c -113.8,0 -194,29.5 -238.2,87.8 -32,42.1 -32.5,83.5 -33,120 -0.4,30.9 -0.7,60.1 -18.1,91.9 -33,60.8 -95.6,72.5 -168,86 -70.8,13.3 -143.88,26.9 -193.71,90.2 -60.25,76.5 -37.44,164.2 -15.36,249 20.62,79.3 40.1,154.1 -1.91,222.3 -47.82,77.6 -142.1,91 -241.92,105.2 -105.88,15.1 -215.35,30.7 -273.16,127 -48.41,80.7 -28.69,167.5 -11.3,244.2 16.41,72.2 30.58,134.6 -6.79,184.5 -52.14,69.6 -180.86,85.7 -382.54,47.8 -11.99,-2.3 -23.46,5.6 -25.7,17.6 -2.25,11.9 5.63,23.4 17.57,25.7 222.67,41.8 361.97,20.6 425.9,-64.7 49.58,-66.1 31.74,-144.7 14.5,-220.7 -16.33,-71.9 -33.2,-146.3 6.11,-211.7 47.02,-78.4 141.54,-91.8 241.61,-106.1 105.47,-15 214.53,-30.5 273.19,-125.7 51.89,-84.2 28.07,-175.7 7.05,-256.4 -21.15,-81.3 -39.4,-151.4 7.34,-210.8 39.59,-50.2 101.52,-61.8 167.12,-74.1 76.5,-14.3 155.6,-29 198.7,-108.2 22.6,-41.5 23,-79.2 23.4,-112.5 0.5,-34 0.8,-63.3 24,-93.9 36.2,-47.6 106.6,-71.5 209,-70.4 0.1,0 0.1,0 0.2,0 12.1,0 21.9,-9.7 22,-21.8 0.1,-12.1 -9.6,-22.1 -21.8,-22.2 -2,0 -4.1,0 -6.2,0"
         style="fill:#000000;fill-opacity:1;fill-rule:nonzero;stroke:none"
         id="path52" /><path
         d="m 20671.2,8573.6 c -2.8,0 -5.7,0.6 -8.5,1.7 -11.2,4.7 -16.5,17.6 -11.8,28.8 321.1,768.3 463.9,1580.1 424.4,2412.6 -0.6,12.1 8.8,22.5 20.9,23 11.8,0.7 22.5,-8.8 23.1,-20.9 39.7,-839.1 -104.2,-1657.3 -427.8,-2431.6 -3.5,-8.5 -11.7,-13.6 -20.3,-13.6"
         style="fill:#000000;fill-opacity:1;fill-rule:nonzero;stroke:none"
         id="path54" /><path
         d="m 20330.5,8951.6 c -2.7,0 -5.4,0.5 -8,1.5 -11.4,4.4 -17,17.2 -12.5,28.5 707.5,1810.8 177.7,4189 172.3,4212.8 -2.7,11.9 4.7,23.7 16.5,26.4 12,2.7 23.7,-4.7 26.4,-16.6 5.5,-23.9 538.2,-2415.4 -174.2,-4238.6 -3.4,-8.7 -11.7,-14 -20.5,-14"
         style="fill:#000000;fill-opacity:1;fill-rule:nonzero;stroke:none"
         id="path56" /><path
         d="m 8672.25,20028.1 c -1.15,0 -2.31,0.1 -3.48,0.3 -12.01,1.9 -20.19,13.2 -18.27,25.2 l 26.87,168.6 c 1.91,12 13.21,20.2 25.19,18.3 12.01,-1.9 20.19,-13.2 18.27,-25.2 l -26.87,-168.6 c -1.72,-10.9 -11.07,-18.6 -21.71,-18.6"
         style="fill:#000000;fill-opacity:1;fill-rule:nonzero;stroke:none"
         id="path58" /><path
         d="m 8609.67,19635.3 c -1.15,0 -2.32,0.1 -3.49,0.2 -12.01,1.9 -20.18,13.2 -18.27,25.2 l 26.85,168.7 c 1.92,12 13.28,20.2 25.21,18.3 12,-2 20.18,-13.2 18.28,-25.3 l -26.86,-168.6 c -1.73,-10.8 -11.09,-18.5 -21.72,-18.5"
         style="fill:#000000;fill-opacity:1;fill-rule:nonzero;stroke:none"
         id="path60" /><path
         d="m 8542.29,19933.9 c -1.16,0 -2.32,0.1 -3.49,0.2 l -168.63,26.9 c -12.01,1.9 -20.18,13.2 -18.27,25.2 1.9,12 13.25,20.2 25.19,18.3 l 168.63,-26.9 c 12.01,-1.9 20.19,-13.2 18.27,-25.2 -1.71,-10.8 -11.07,-18.5 -21.7,-18.5"
         style="fill:#000000;fill-opacity:1;fill-rule:nonzero;stroke:none"
         id="path62" /><path
         d="m 8935.14,19871.3 c -1.16,0 -2.32,0.1 -3.49,0.3 l -168.64,26.8 c -12,1.9 -20.18,13.2 -18.27,25.2 1.9,12 13.22,20.2 25.19,18.3 l 168.64,-26.9 c 12.01,-1.9 20.19,-13.2 18.28,-25.2 -1.72,-10.8 -11.07,-18.5 -21.71,-18.5"
         style="fill:#000000;fill-opacity:1;fill-rule:nonzero;stroke:none"
         id="path64" /><path
         d="m 20239.3,13766 h 0.2 z m 67,-7.6 c -19.8,0 -39.4,-4.2 -58,-12.5 -73.1,-32.8 -106.3,-120.3 -74.1,-195 15.8,-36.4 44.5,-64.3 80.9,-78.4 35.5,-13.9 74.4,-12.8 109.2,2.8 73.1,32.8 106.3,120.3 74.1,195 -15.8,36.4 -44.5,64.3 -80.9,78.4 -16.6,6.5 -33.9,9.7 -51.2,9.7 z m 0.1,-339.7 c -22.7,0 -45.5,4.3 -67.3,12.8 -47.5,18.4 -84.9,54.6 -105.3,102 -41.7,96.6 1.6,209.9 96.5,252.5 45.7,20.6 96.5,21.9 143.2,3.7 47.5,-18.4 84.8,-54.7 105.3,-102 41.7,-96.7 -1.6,-209.9 -96.5,-252.5 -24.3,-11 -50.1,-16.5 -75.9,-16.5"
         style="fill:#000000;fill-opacity:1;fill-rule:nonzero;stroke:none"
         id="path66" /><path
         d="m 4307.21,9940.3 c -9.93,0 -18.95,6.8 -21.38,16.9 -446.58,1856.5 -271.65,3858.7 -269.83,3878.7 1.1,12.1 11.83,21.1 23.91,19.9 12.12,-1.1 21.04,-11.8 19.94,-23.9 -1.82,-19.9 -176.05,-2015.2 268.78,-3864.4 2.85,-11.8 -4.43,-23.7 -16.25,-26.5 -1.73,-0.5 -3.46,-0.7 -5.17,-0.7"
         style="fill:#000000;fill-opacity:1;fill-rule:nonzero;stroke:none"
         id="path68" /><path
         d="m 4084.51,9252 c -9.37,0 -18.04,6 -20.99,15.4 -470.67,1500.2 -480.09,3293.4 -480.13,3311.3 -0.04,12.1 9.8,22 21.96,22.1 0.02,0 0.04,0 0.05,0 12.13,0 21.98,-9.9 22.01,-22 0.05,-17.9 9.49,-1804.5 478.11,-3298.2 3.64,-11.6 -2.82,-23.9 -14.42,-27.6 -2.19,-0.7 -4.41,-1 -6.59,-1"
         style="fill:#000000;fill-opacity:1;fill-rule:nonzero;stroke:none"
         id="path70" /><path
         d="m 3918.92,14236.1 439.76,-32.4 -140.32,461.3 z m 470.17,-78.7 c -0.54,0 -1.07,0 -1.61,0 l -510.36,37.6 c -7.9,0.6 -14.87,5.4 -18.26,12.5 -3.41,7.1 -2.71,15.6 1.82,22.1 l 347.52,497.8 c 4.8,6.9 13.12,10.4 21.48,9.1 8.33,-1.3 15.17,-7.3 17.62,-15.3 l 162.85,-535.4 c 2.12,-6.9 0.67,-14.5 -3.86,-20.2 -4.21,-5.2 -10.53,-8.2 -17.2,-8.2"
         style="fill:#000000;fill-opacity:1;fill-rule:nonzero;stroke:none"
         id="path72" /><path
         d="M 13944.3,5039.4 H 6642.64 c -145.28,0 -264.15,118.9 -264.15,264.2 v 8072 c 0,1125.9 921.18,2047.1 2047.06,2047.1 h 3570.75 c 1216.7,0 2212.2,-995.5 2212.2,-2212.2 V 5303.6 c 0,-145.3 -118.9,-264.2 -264.2,-264.2"
         style="fill:#ffffff;fill-opacity:1;fill-rule:nonzero;stroke:none"
         id="path74" /><path
         d="m 8425.55,15400.7 c -1116.61,0 -2025.05,-908.5 -2025.05,-2025.1 v -8072 c 0,-133.5 108.63,-242.2 242.14,-242.2 h 7301.66 c 133.6,0 242.2,108.7 242.2,242.2 v 7906.9 c 0,1207.7 -982.5,2190.2 -2190.2,2190.2 z M 13944.3,5017.4 H 6642.64 c -157.8,0 -286.16,128.4 -286.16,286.2 v 8072 c 0,1140.9 928.18,2069.1 2069.07,2069.1 h 3570.75 c 1232,0 2234.2,-1002.2 2234.2,-2234.2 V 5303.6 c 0,-157.8 -128.4,-286.2 -286.2,-286.2"
         style="fill:#000000;fill-opacity:1;fill-rule:nonzero;stroke:none"
         id="path76" /><path
         d="m 8854.07,11179.1 c 0,0 -1515.2,-5348.4 -1488.32,-5629 0,0 1497.91,-238.3 3131.95,-510.7 1284.8,-214.1 2339.8,-212.7 3404.4,408.6 l 777.9,5672.4 c 0,0 -1312.9,356.2 -2786.9,438.1 -1474.1,81.9 -3039.03,-379.4 -3039.03,-379.4"
         style="fill:#000000;fill-opacity:1;fill-rule:nonzero;stroke:none"
         id="path78" /><path
         d="M 5273.37,9711.6 C 6364.81,9278.7 7499.79,8942.8 8725.6,8809.3 l 102.39,2082.4 -3554.62,-1180.1"
         style="fill:#000000;fill-opacity:1;fill-rule:nonzero;stroke:none"
         id="path80" /><path
         d="m 14195.8,10915 c 21.8,-35.1 -221.5,-1943.1 -221.5,-1943.1 1315.8,1.4 2804,369.3 4403.8,974.5 l -4182.3,968.6"
         style="fill:#000000;fill-opacity:1;fill-rule:nonzero;stroke:none"
         id="path82" /><path
         d="m 10740.1,12379.2 -151.1,-895.5 -525,-167.3 c 0,0 331.6,-611.9 1513.2,-588.5 1181.6,23.4 1386.4,668.3 1386.4,668.3 l -778,220.8 -117,599.8 -1328.5,162.4"
         style="fill:#ffffff;fill-opacity:1;fill-rule:nonzero;stroke:none"
         id="path84" /><path
         d="m 10589,11483.7 h 0.2 z m -491,-179.5 c 75.3,-109.6 456.4,-574.5 1478.8,-554.3 1028.5,20.4 1308.2,521.7 1357.2,631.8 l -754.5,214.1 c -7.9,2.3 -14,8.9 -15.5,17 l -114,584.1 -1291.7,157.8 -147.6,-874.6 c -1.4,-8.2 -7.2,-14.9 -15.1,-17.4 z m 1412.6,-599 c -1127.2,0 -1452.4,575.8 -1465.9,600.7 -3.2,5.8 -3.6,12.7 -1.1,18.8 2.4,6 7.5,10.7 13.7,12.7 l 512.2,163.2 148.9,882.2 c 2,11.6 12.8,19.6 24.4,18.2 l 1328.4,-162.4 c 9.5,-1.1 17.1,-8.2 19,-17.6 l 114.4,-586.5 765,-217.1 c 5.7,-1.6 10.5,-5.5 13.4,-10.7 2.8,-5.3 3.4,-11.5 1.6,-17.1 -8.6,-27 -223.2,-660.3 -1406.9,-683.7 -22.7,-0.4 -45,-0.7 -67.1,-0.7"
         style="fill:#000000;fill-opacity:1;fill-rule:nonzero;stroke:none"
         id="path86" /><path
         d="m 10896.9,12597 c -194.1,-62.4 -372.9,-96.3 -536.9,49.9 -73.2,65.2 -129.6,146.7 -185.3,227.4 -83.8,121.3 -167.6,242.7 -251.36,364 -31.27,45.3 -62.58,90.7 -89.95,138.4 -132.46,231.2 -165.41,504.3 -195.71,769 -38.72,338.3 148.33,680 320.18,967.1 82.24,137.3 176.44,270.2 300.74,370.9 128.9,104.3 268.1,128.4 423.5,172.7 197.1,56.3 403.9,71 608,70.2 326.5,-1.4 682.6,-56.7 903.7,-296.9 162.3,85.1 335.4,153 516.6,179.9 181.2,26.9 371.4,11.1 538.2,-64.7 185.1,-84.2 335.2,-242.5 409.5,-431.7 81.6,-207.6 33.3,-390 15.5,-600.9 -16.9,-200.8 -107,-372.4 -170.4,-559.6 -58.1,-171.7 -81.5,-356.2 -140.6,-529.6 -36.9,-108 -80.4,-216.1 -153.5,-303.7 -73.1,-87.5 -180.7,-152.7 -294.7,-150.3 -132.8,2.9 -248.3,94.7 -328.4,200.5 -80.2,105.9 -135.7,228.7 -215.7,334.6 -47.2,62.5 -105,120.2 -177.9,148.6 -289.1,112.7 -497.2,-366.1 -630.1,-543.9 -174,-232.5 -384.4,-421.6 -665.4,-511.9"
         style="fill:#000000;fill-opacity:1;fill-rule:nonzero;stroke:none"
         id="path88" /><path
         d="m 13144.8,13183 c -54.8,43.3 -190.2,4.1 -236.9,-21.1 3.8,228 -27.8,475.1 -151.9,671.8 -53.4,84.5 -120.5,139.8 -194.7,204 -43.9,37.9 -225.7,220.6 -197.3,288.1 -168.1,-399.5 -571.2,-661.5 -991.1,-769 -164.3,-42.1 -336.1,-65.3 -487,-142.8 -91.8,-47.2 -176.1,-119.8 -225.9,-211.2 -42.2,-77.4 -18.8,-201 -111.3,-141.4 -70.5,45.4 -221.4,299.4 -329.6,240.3 -161.2,-87.9 99.4,-975 413.3,-1005.5 184.9,-518 411.2,-1030.3 1004.4,-1078.7 741.5,-60.5 1029,317.8 1219.2,1262.4 202.2,188 448.9,576.7 288.8,703.1"
         style="fill:#ffffff;fill-opacity:1;fill-rule:nonzero;stroke:none"
         id="path90" /><path
         d="m 10253.9,13288.4 c -8.5,0 -16.7,-1.9 -24.3,-6 -35.1,-19.2 -54.3,-118.1 -18,-296 62.8,-307.8 242.3,-650.8 423,-668.3 8.4,-0.9 15.7,-6.5 18.6,-14.5 190.6,-534 409.4,-1017.1 985.4,-1064.1 695.1,-56.7 997,257.3 1195.9,1244.8 0.9,4.5 3.2,8.6 6.6,11.7 165.1,153.6 339.3,417.3 332.9,575.6 -1.7,41.9 -15.7,72.7 -42.9,94.2 -42,33.1 -163.4,3.4 -212.8,-23.3 -6.9,-3.7 -15.2,-3.5 -21.9,0.6 -6.7,4 -10.7,11.3 -10.6,19.2 4.7,274.2 -45.2,496.1 -148.4,659.6 -48.2,76.4 -107.6,127.6 -176.3,186.8 l -14.3,12.3 c -1.8,1.7 -144.4,129.7 -192.2,232 -169.7,-337.4 -529.1,-603 -976.3,-717.6 -42.8,-10.9 -86.7,-20.8 -129.2,-30.2 -119.9,-26.9 -243.8,-54.6 -353.1,-110.8 -95.4,-48.9 -172.3,-120.8 -216.7,-202.2 -12.2,-22.5 -18.7,-51.3 -24.5,-76.7 -8.8,-39.1 -17.1,-76.1 -46.8,-88.2 -25.8,-10.6 -53,3.8 -71.3,15.6 -24.1,15.6 -53.8,49.7 -88.2,89.2 -58.7,67.3 -136.2,156.3 -194.6,156.3 z m 1530.5,-2099.2 c -47.9,0 -97.5,2.1 -149.4,6.4 -596.9,48.7 -831.7,558.7 -1018.8,1080.5 -217.5,36.8 -392.1,428.4 -447.8,701.5 -17.7,87 -49.3,294.6 40.1,343.4 90.7,49.5 191.9,-66.6 273.2,-160 30.8,-35.4 60,-68.9 78.9,-81.1 22.6,-14.6 29.9,-12.2 30.7,-11.9 8.5,3.5 15.8,35.8 20.6,57.2 6.4,28.2 13.6,60.2 28.8,88.1 48.5,89.1 132,167.3 235.1,220.3 114.4,58.7 241.1,87.1 363.7,114.5 42.1,9.4 85.7,19.2 127.9,30 461.9,118.3 826.9,401 976.3,756.2 4.7,11.3 17.6,16.5 28.8,11.8 11.2,-4.7 16.5,-17.6 11.7,-28.8 -17.5,-42.1 113.7,-195.7 191.5,-263 l 14.2,-12.2 c 68.4,-59 133,-114.8 184.7,-196.7 103.5,-163.9 155.7,-382.3 155.6,-649.6 64.2,24.4 174.1,47.3 228.2,4.5 37.4,-29.5 57.4,-72.2 59.6,-126.9 7.6,-188.6 -193.5,-464.8 -341.8,-604.7 -187.5,-925.6 -481,-1279.5 -1091.8,-1279.5"
         style="fill:#000000;fill-opacity:1;fill-rule:nonzero;stroke:none"
         id="path92" /><path
         d="m 10527,12940.1 c -68.2,248.4 -338.2,931.9 -154.1,1093.3 214.9,188.3 99.1,361.4 90.9,372.1 -0.6,0.1 -0.9,0.1 -1.4,0.2 l -343,-258.8 c -13.2,-10 -30.7,4.8 -23.1,19.4 64.4,122.4 208.3,394.8 268.9,497.3 57.8,97.9 48.4,251.8 39.1,327.6 -2.4,19.4 -25.7,27.8 -40,14.4 l -432.21,-403.4 c 0,0 247.61,328 290.81,465.2 27.3,86.6 -1.9,157.3 -27,197.7 -12.2,19.6 -87.8,-2.7 -101.8,-21 l -628.29,-865.7 c -118.78,-156.3 -132.1,-368.6 -33.77,-538.5 l 243.83,-635.6 c 79.95,-138.2 87.46,-256.7 73.37,-410.9 -8.12,-89 -309.35,-170.2 -396.22,-190.8 -1024,-243.1 -4534.57,-710.1 -4457.05,-2345.6 40.32,-850.8 1420.28,-768.5 2313.33,-482.5 1530.27,490.1 3061.5,2407.9 3061.5,2407.9 0,0 324.5,509.3 256.2,757.7"
         style="fill:#ffffff;fill-opacity:1;fill-rule:nonzero;stroke:none"
         id="path94" /><path
         d="m 10270.8,12182.4 h 0.2 z m -575,1031.4 c 81.87,-142.3 89.56,-267.2 75.37,-422.4 -9.46,-103.5 -292.02,-181.5 -413.07,-210.2 -131.88,-31.3 -305,-66.4 -505.46,-106.9 -670.49,-135.7 -1683.74,-340.7 -2508.02,-687 -975.35,-409.6 -1455.35,-924.2 -1426.66,-1529.3 9.38,-198 94.91,-354.5 254.19,-465.1 438.75,-304.5 1360.07,-212.1 2030.42,2.6 1493.17,478.2 3009.03,2348.4 3050.33,2399.7 15.8,25.1 316.4,508 252.9,739.1 v 0 c -12.1,44 -30.6,101.7 -52,168.7 -102.5,320.5 -257.4,804.9 -95.4,947 166.2,145.6 122.7,277.3 98.6,324.1 l -324.3,-244.8 c -14.2,-10.7 -33.5,-10.1 -46.9,1.3 -13.5,11.4 -17.1,30.3 -8.9,45.9 60.5,115.2 207.9,394.4 269.3,498.3 55.9,94.5 43.9,250.9 36.2,313.7 l -18.1,17.1 15,-16 -432.18,-403.5 c -8.37,-7.8 -21.28,-7.9 -29.77,-0.3 -8.48,7.7 -9.71,20.5 -2.83,29.6 2.46,3.3 245.88,326.6 287.38,458.6 23.6,74.8 1.1,136.8 -22.9,176.5 -13.9,2.8 -58.6,-10 -67.5,-19.9 l -627.88,-865.1 c -114.03,-150.1 -126.69,-351.9 -32.54,-514.6 0.59,-1 1.09,-2 1.51,-3.1 z M 6004,9554.7 c -340.27,0 -649.85,58.3 -856.96,202.1 -171.13,118.7 -262.99,286.7 -273.06,499.1 -29.64,625.5 459.41,1154.4 1453.59,1572 828.3,348 1844.14,553.5 2516.34,689.5 200.07,40.5 372.86,75.5 504.02,106.6 180.24,42.8 374.45,117.4 379.38,171.4 13.8,151 6.7,264.5 -70.48,397.8 -0.59,1 -1.09,2.1 -1.51,3.2 l -243.22,634 c -102.11,177.9 -87.97,398 36.19,561.3 l 628.01,865.3 c 16.6,21.8 70.6,39 101.8,37.7 21.5,-1 31.7,-10.3 36.5,-17.9 29.5,-47.4 58.5,-123.3 29.3,-216.1 -22.6,-71.8 -97.5,-191.4 -166.1,-292.3 l 271.5,253.3 c 12.7,11.9 30.7,15.6 47,9.7 16.3,-6 27.7,-20.3 29.8,-37.5 10.3,-83.6 18.5,-239.2 -42,-341.5 -56.6,-95.9 -188,-343.9 -254.6,-470.4 l 319.7,241.3 c 4.6,3.5 10.4,5 16.2,4.2 5.7,-0.8 12.3,-4 15.8,-8.6 40.8,-53.3 103.4,-229.3 -93.8,-402.1 -140.3,-122.9 15.4,-609.6 108.4,-900.4 21.5,-67.4 40.1,-125.6 52.4,-170.5 70.1,-254.8 -245.4,-754.2 -258.8,-775.4 -0.5,-0.6 -0.9,-1.3 -1.4,-1.9 -15.3,-19.2 -1552.96,-1928.5 -3071.99,-2415.1 C 6848.07,9635.7 6404.78,9554.7 6004,9554.7"
         style="fill:#000000;fill-opacity:1;fill-rule:nonzero;stroke:none"
         id="path96" /><path
         d="m 12728.3,12558.6 c 55,251.6 397.8,1118 205.4,1269.3 -224.5,176.7 -161.4,521 -121.9,404.7 0.5,0.1 0.8,0.2 1.3,0.3 l 276.2,-186.4 c 32.8,-22.1 72.8,15.7 52.5,49.6 -78.9,131.9 -192,319.4 -245.2,399.5 -63,94.7 -61.7,248.8 -56.4,325.1 1.4,19.4 24.2,29 39.2,16.5 l 452.9,-380.1 c 0,0 -264.6,314.5 -315,449.2 -31.8,85 -6.4,157.2 16.5,198.9 11.2,20.2 75.8,9.7 90.7,-7.9 l 685.3,-839 c 126.9,-149.8 151.4,-361.1 62.2,-536 l -290.5,-569.2 c -72.6,-142.2 -97.3,-301.1 -75.1,-454.4 12.8,-88.3 80.5,-158.5 168.2,-174.5 1035.5,-188.5 4898.2,-627.3 4916.5,-2140 10.2,-851.7 -1209.5,-756.8 -2116.4,-518.4 -1554.1,408.6 -3352.7,2157 -3352.7,2157 0,0 -448.8,284.1 -393.7,535.8"
         style="fill:#ffffff;fill-opacity:1;fill-rule:nonzero;stroke:none"
         id="path98" /><path
         d="m 12728.3,12558.6 h 0.2 z m 69.4,1657.5 c -10.9,-65.9 1.5,-254.3 149.6,-370.9 158.8,-124.9 -3.2,-647.4 -121.5,-1028.9 -33.9,-109.4 -63.2,-203.8 -76,-262.4 -51.2,-233.9 379.6,-509.8 384,-512.5 1.2,-0.8 2.4,-1.8 3.5,-2.8 18,-17.5 1812.4,-1749.1 3343,-2151.5 415.4,-109.2 1430.4,-325.3 1880.7,26.3 140.5,109.6 210.5,267.9 208,470.5 -6.8,570.1 -582.9,1053.2 -1712.2,1435.8 -944.2,319.9 -2081.2,502.8 -2760.4,612 -168.4,27.1 -313.8,50.5 -425.7,70.9 -97.1,17.7 -171.9,95.2 -186.1,193 -23.3,161 3.4,322.7 77.3,467.5 l 290.5,569.2 c 85.4,167.5 62.1,368.3 -59.4,511.8 l -685.5,839.3 c -7.7,7.9 -44.6,14 -55.4,9.3 -22.1,-40.8 -41.9,-104.5 -14.2,-178.7 48.5,-129.7 308.6,-439.6 311.3,-442.7 7.3,-8.8 6.8,-21.7 -1.3,-29.7 -8.1,-8.1 -21,-8.7 -29.7,-1.4 l -452.9,380.1 -25.1,0.4 22,-1.6 c -4.4,-63.1 -8,-219.9 52.7,-311.3 52.8,-79.4 162.8,-261.6 245.8,-400.4 14.5,-24.3 10.5,-53.6 -10,-73.1 -20.6,-19.5 -50.3,-21.9 -73.7,-6 l -273.2,184.3 c -2.2,0.9 -4.3,2.1 -6.1,3.5 z m 4805.2,-4538.7 c -429.6,0 -886.5,102.1 -1133.8,167.1 -1521.5,400 -3297,2099.3 -3360.8,2160.9 -36.8,23.6 -457.9,300.2 -401.5,557.9 13.2,60.4 42.7,155.7 76.9,266 101.5,327.3 271.4,875.1 136.4,981.3 -171.9,135.3 -184,366.4 -159.9,435.6 9.2,26.5 24.7,31.9 34.6,31.9 19.3,-0.1 29.5,-17.4 34.6,-29.6 l 272.2,-183.7 c 9.3,-6.3 16.7,-0.5 18.8,1.5 2.6,2.5 8.1,9.2 2.5,18.5 -82.7,138.4 -192.4,319.9 -244.7,398.6 -65.7,99 -65.7,254.7 -59.9,338.8 1.2,17.3 11.8,32.2 27.7,39 16,6.7 34.2,4 47.5,-7.2 l 284.5,-238.7 c -73.8,97.2 -154.9,212.7 -181.3,283.2 -34.1,91.1 -9.1,168.5 17.9,217.3 4.8,8.7 15.6,19.5 39.9,21.9 28.8,2.9 70.5,-6.9 86.8,-26.1 l 685.5,-839.4 c 132.8,-156.7 158.3,-376.6 64.8,-559.9 l -290.5,-569.2 c -69.8,-136.7 -95,-289.2 -72.9,-441.2 11.5,-79 71.9,-141.7 150.4,-156 111.4,-20.3 256.6,-43.6 424.7,-70.7 680.7,-109.5 1819.9,-292.7 2767.6,-613.8 1148.9,-389.3 1735,-886.2 1742.2,-1477 2.6,-217 -73.1,-387.2 -225,-505.8 -192.7,-150.4 -482.2,-201.2 -785.2,-201.2"
         style="fill:#000000;fill-opacity:1;fill-rule:nonzero;stroke:none"
         id="path100" /><path
         d="m 19016,6559.3 -6921.2,-14.8 c -60.5,0 -102.5,44.1 -98.2,103.1 l 311.1,4221.9 c 7.5,102.7 103.7,199.7 209.1,199.7 l 6827.5,-6.1 -328.3,-4503.8"
         style="fill:#ffffff;fill-opacity:1;fill-rule:nonzero;stroke:none"
         id="path102" /><path
         d="m 12516.8,11047.2 c -91,0 -180.3,-85.5 -187.2,-179.4 l -311,-4221.9 c -1.6,-21.8 4.8,-41.8 18.2,-56.2 13.9,-14.9 34.5,-23.2 58,-23.2 l 6900.7,14.8 325.1,4459.8 z M 19016,6559.3 h 0.2 z m -6921.2,-36.8 c -35.9,0 -67.9,13.2 -90.3,37.3 -21.7,23.4 -32.3,55.2 -29.8,89.4 l 311,4221.9 c 8.6,117.2 116.6,220.1 231.1,220.1 l 6827.5,-6.1 c 6.1,0 11.9,-2.5 16.1,-7 4.2,-4.5 6.3,-10.5 5.8,-16.6 l -328.3,-4503.8 c -0.8,-11.5 -10.4,-20.4 -21.9,-20.4 l -6921.2,-14.8"
         style="fill:#000000;fill-opacity:1;fill-rule:nonzero;stroke:none"
         id="path104" /><path
         d="m 19158.8,6564.7 h -6779.9 c -60.4,0 -102.4,44.2 -98.1,103.3 l 306.7,4183.9 c 8.6,116.2 121.4,219.2 240.3,219.2 h 6692.5 c 60.4,0 102.4,-44.2 98.1,-103.3 l -313,-4269.4 c -5.2,-70.9 -74.1,-133.7 -146.6,-133.7"
         style="fill:#ffffff;fill-opacity:1;fill-rule:nonzero;stroke:none"
         id="path106" /><path
         d="m 12827.8,11049.1 c -106.7,0 -210.7,-94.8 -218.3,-198.8 l -306.8,-4183.9 c -1.6,-22 4.9,-42.1 18.3,-56.5 13.9,-15 34.5,-23.2 57.9,-23.2 h 6779.9 c 60.9,0 120.3,54 124.6,113.3 l 313,4269.4 c 1.6,22 -4.9,42.1 -18.3,56.5 -13.8,15 -34.4,23.2 -57.8,23.2 z m 6331,-4506.4 h -6779.9 c -35.8,0 -67.8,13.2 -90.1,37.2 -21.8,23.5 -32.5,55.4 -30,89.7 l 306.8,4183.9 c 9.3,127.7 131.8,239.6 262.2,239.6 h 6692.5 c 35.8,0 67.8,-13.2 90.1,-37.2 21.8,-23.5 32.5,-55.4 29.9,-89.8 l -313,-4269.4 c -6,-82 -84.7,-154 -168.5,-154"
         style="fill:#000000;fill-opacity:1;fill-rule:nonzero;stroke:none"
         id="path108" /><path
         d="M 15026.4,5533.6 H 16064 l 258.8,2820.5 c 3.1,33.8 -20,59.4 -53.5,59.4 h -862.2 c -66,0 -121.2,-52.1 -127.4,-120.3 l -253.3,-2759.6"
         style="fill:#000000;fill-opacity:1;fill-rule:nonzero;stroke:none"
         id="path110" /><path
         d="m 15189.4,5533.6 h 1037.5 l 255.3,2821.5 h -1037.5 l -255.3,-2821.5"
         style="fill:#ffffff;fill-opacity:1;fill-rule:nonzero;stroke:none"
         id="path112" /><path
         d="m 15213.5,5555.6 h 993.3 l 251.3,2777.5 h -993.3 z m 1013.4,-44 h -1037.5 c -6.2,0 -12.1,2.6 -16.3,7.1 -4.2,4.6 -6.2,10.7 -5.7,16.9 l 255.3,2821.5 c 1.1,11.3 10.6,20 22,20 h 1037.5 c 6.2,0 12.1,-2.6 16.3,-7.1 4.1,-4.6 6.2,-10.7 5.6,-16.9 l -255.3,-2821.5 c -1,-11.4 -10.5,-20 -21.9,-20"
         style="fill:#000000;fill-opacity:1;fill-rule:nonzero;stroke:none"
         id="path114" /><path
         d="M 16977.2,5480.8 H 14117 c -15.2,0 -27.6,12.4 -27.6,27.6 v 438.9 c 0,15.2 12.4,27.5 27.6,27.5 h 2860.2 c 15.2,0 27.5,-12.3 27.5,-27.5 v -438.9 c 0,-15.2 -12.3,-27.6 -27.5,-27.6"
         style="fill:#000000;fill-opacity:1;fill-rule:nonzero;stroke:none"
         id="path116" /><path
         d="m 17151.4,5524.2 h -2915.3 v 407.3 h 2915.3 v -407.3"
         style="fill:#ffffff;fill-opacity:1;fill-rule:nonzero;stroke:none"
         id="path118" /><path
         d="m 14258.1,5546.2 h 2871.2 v 363.3 h -2871.2 z m 2893.3,-44 h -2915.3 c -12.2,0 -22,9.8 -22,22 v 407.3 c 0,12.2 9.8,22 22,22 h 2915.3 c 12.1,0 22,-9.8 22,-22 v -407.3 c 0,-12.2 -9.9,-22 -22,-22"
         style="fill:#000000;fill-opacity:1;fill-rule:nonzero;stroke:none"
         id="path120" /><path
         d="M 19981.6,3387.1 H 4850.44 L 4714.26,4824.6 H 20087.6 l -106,-1437.5"
         style="fill:#ffffff;fill-opacity:1;fill-rule:nonzero;stroke:none"
         id="path122" /><path
         d="M 4574.73,4671.6 H 20508.5 c 35.6,0 64.4,28.8 64.4,64.3 v 726.2 c 0,35.5 -28.8,64.3 -64.4,64.3 H 4574.73 c -35.52,0 -64.31,-28.8 -64.31,-64.3 v -726.2 c 0,-35.5 28.79,-64.3 64.31,-64.3"
         style="fill:#ffffff;fill-opacity:1;fill-rule:nonzero;stroke:none"
         id="path124" /><path
         d="m 4574.74,5504.4 c -23.33,0 -42.31,-19 -42.31,-42.3 v -726.2 c 0,-23.3 18.98,-42.3 42.31,-42.3 H 20508.5 c 23.4,0 42.3,19 42.3,42.3 v 726.2 c 0,23.3 -18.9,42.3 -42.3,42.3 z M 20508.5,4649.6 H 4574.74 c -47.61,0 -86.34,38.8 -86.34,86.3 v 726.2 c 0,47.6 38.73,86.3 86.34,86.3 H 20508.5 c 47.6,0 86.4,-38.7 86.4,-86.3 v -726.2 c 0,-47.5 -38.8,-86.3 -86.4,-86.3"
         style="fill:#000000;fill-opacity:1;fill-rule:nonzero;stroke:none"
         id="path126" /><path
         d="m 9830,4891.9 c -12.16,0 -22.02,9.9 -22.02,22 v 393 c 0,12.2 9.86,22.1 22.02,22.1 12.15,0 22.01,-9.9 22.01,-22.1 v -393 c 0,-12.1 -9.86,-22 -22.01,-22"
         style="fill:#000000;fill-opacity:1;fill-rule:nonzero;stroke:none"
         id="path128" /><path
         d="m 6394.67,3350 c -12.01,0 -21.82,9.6 -22,21.7 l -15.8,1058.1 c -0.19,12.2 9.52,22.2 21.67,22.3 12.8,-0.1 22.17,-9.5 22.35,-21.6 l 15.8,-1058.2 c 0.19,-12.1 -9.52,-22.1 -21.68,-22.3 -0.12,0 -0.22,0 -0.34,0"
         style="fill:#000000;fill-opacity:1;fill-rule:nonzero;stroke:none"
         id="path130" /><path
         d="m 4840.24,3364.4 c -11.44,0 -21.09,8.8 -21.94,20.4 l -91.41,1258.7 c -0.88,12.1 8.24,22.6 20.37,23.5 11.87,1 22.65,-8.2 23.55,-20.3 L 4862.22,3388 c 0.88,-12.1 -8.25,-22.7 -20.37,-23.5 -0.54,-0.1 -1.07,-0.1 -1.61,-0.1"
         style="fill:#000000;fill-opacity:1;fill-rule:nonzero;stroke:none"
         id="path132" /><path
         d="m 19992.5,3364 c -0.8,0 -1.6,0 -2.4,0.1 -12.1,1.3 -20.8,12.1 -19.6,24.2 l 136.5,1282.6 c 1.2,12.1 11.8,20.9 24.2,19.6 12.1,-1.3 20.8,-12.1 19.5,-24.2 l -136.4,-1282.6 c -1.2,-11.3 -10.7,-19.7 -21.8,-19.7"
         style="fill:#000000;fill-opacity:1;fill-rule:nonzero;stroke:none"
         id="path134" /></g></g></svg>
