<?xml version="1.0" encoding="UTF-8" standalone="no"?>
<!-- Created with Inkscape (http://www.inkscape.org/) -->

<svg
   version="1.1"
   id="svg2"
   xml:space="preserve"
   width="666.66669"
   height="666.66669"
   viewBox="0 0 666.66669 666.66669"
   sodipodi:docname="5261504.svg"
   inkscape:version="1.1.2 (0a00cf5339, 2022-02-04)"
   xmlns:inkscape="http://www.inkscape.org/namespaces/inkscape"
   xmlns:sodipodi="http://sodipodi.sourceforge.net/DTD/sodipodi-0.dtd"
   xmlns="http://www.w3.org/2000/svg"
   xmlns:svg="http://www.w3.org/2000/svg"><defs
     id="defs6"><clipPath
       clipPathUnits="userSpaceOnUse"
       id="clipPath82"><path
         d="m 2769.97,2017.24 c -15.69,0 -31.21,0.47 -46.62,1.22 v 296.18 c 14.54,-1.14 29.3,-1.74 44.3,-1.74 149.58,0 274,55.54 356.09,169.52 31.86,44.24 83.98,69.36 138.5,69.36 100.29,0 167.42,-82.01 167.35,-168.27 -0.03,-38.68 -13.57,-78.22 -43.69,-111.61 -148.69,-164.82 -366.43,-254.66 -615.93,-254.66"
         id="path80" /></clipPath><clipPath
       clipPathUnits="userSpaceOnUse"
       id="clipPath64"><path
         d="m 2769.97,2017.24 c -56,0 -110.27,4.83 -162.6,14.1 -162.79,28.97 -306.28,101 -418.67,206.82 -113.36,106.21 -203.35,244.68 -241,408.82 -2.15,8.4 -4.3,18.76 -6.04,27.51 l -0.14,0.11 h -156.04 v -477.67 c 0,-91.45 -74.14,-165.59 -165.59,-165.59 -91.46,0 -165.6,74.14 -165.6,165.59 v 1318.21 c 0,92.3 74.83,167.12 167.13,167.12 h 452.57 c 125.14,0 230.58,-22.79 316.13,-62.57 v 0 0 c 112.78,-52.33 191.37,-134.21 235.98,-232.7 v 0 0 c 29.16,-64.3 43.84,-135.95 43.84,-210.88 0,-143.67 -56.78,-288.31 -185.58,-385.26 -57.51,-43.22 -124.27,-71.6 -194.51,-86.09 28.35,-119.45 90.53,-225.21 173.27,-290.87 71.49,-56.98 160.21,-91.45 260.23,-99.28 v -296.15 0 c 15.41,-0.75 30.93,-1.22 46.62,-1.22 m -984.49,1390.61 v -484.91 h 276.73 c 113.36,0 188.29,36.69 229.23,99.65 19.69,29.93 31.48,65.85 35.92,106.6 v 0 0 c 1.35,12.74 2.12,26.07 2.12,39.78 v 0 0 c 0,131.12 -66.24,218.79 -212.23,235.79 -17.19,2.12 -35.53,3.09 -55.04,3.09 h -276.73"
         id="path62" /></clipPath><linearGradient
       x1="0"
       y1="0"
       x2="1"
       y2="0"
       gradientUnits="userSpaceOnUse"
       gradientTransform="matrix(-738.106,-2084.06,-2084.06,738.106,2756.72,3838.5)"
       spreadMethod="pad"
       id="linearGradient72"><stop
         style="stop-opacity:1;stop-color:#a356b1"
         offset="0"
         id="stop66" /><stop
         style="stop-opacity:1;stop-color:#a356b1"
         offset="0.0306713"
         id="stop68" /><stop
         style="stop-opacity:1;stop-color:#57c8d7"
         offset="1"
         id="stop70" /></linearGradient><clipPath
       clipPathUnits="userSpaceOnUse"
       id="clipPath20"><path
         d="m 3274.55,3168.97 h -19.03 c -51.22,0 -99.9,23.98 -129.74,65.61 -72.11,100.6 -177.56,156.4 -304.41,168.46 -3.07,42.36 -9.22,84.35 -20.32,125.28 -16.16,59.55 -43.22,116.66 -84.56,162.94 -3.08,3.44 -6.38,6.63 -9.58,9.92 -113.44,-7.54 -219.51,-35.13 -314.51,-80.39 112.42,53.57 240.23,82.71 377.57,82.71 255.63,0 477.92,-95.53 626.76,-268.05 90.1,-104.43 15.75,-266.48 -122.18,-266.48 m -883.82,451.02 c 0.08,0.04 0.17,0.08 0.25,0.12 -0.08,-0.04 -0.17,-0.08 -0.25,-0.12 m 0.59,0.28 c 0.12,0.06 0.23,0.11 0.35,0.16 -0.11,-0.05 -0.24,-0.11 -0.35,-0.16 m 0.57,0.27 c 0.15,0.07 0.3,0.14 0.44,0.21 -0.15,-0.07 -0.29,-0.14 -0.44,-0.21"
         id="path18" /></clipPath><linearGradient
       x1="0"
       y1="0"
       x2="1"
       y2="0"
       gradientUnits="userSpaceOnUse"
       gradientTransform="matrix(630.327,359.287,359.287,-630.327,2564.53,3230.43)"
       spreadMethod="pad"
       id="linearGradient28"><stop
         style="stop-opacity:1;stop-color:#f46c4f"
         offset="0"
         id="stop22" /><stop
         style="stop-opacity:1;stop-color:#f46c4f"
         offset="0.00498099"
         id="stop24" /><stop
         style="stop-opacity:1;stop-color:#f8e221"
         offset="1"
         id="stop26" /></linearGradient><clipPath
       clipPathUnits="userSpaceOnUse"
       id="clipPath50"><path
         d="m 2327.36,3129.19 c 1.35,12.74 2.12,26.07 2.12,39.78 v 0 c 0,-13.71 -0.77,-27.04 -2.12,-39.78 v 0 m 298.74,257.8 c -44.61,98.49 -123.2,180.37 -235.98,232.7 v 0 0 0 c 0.21,0.1 0.4,0.2 0.61,0.3 0.08,0.04 0.17,0.08 0.25,0.12 0.11,0.05 0.23,0.11 0.34,0.16 0.11,0.05 0.24,0.11 0.35,0.16 0.07,0.04 0.15,0.08 0.22,0.11 0.15,0.07 0.29,0.14 0.44,0.21 0.02,0.01 0.05,0.03 0.07,0.04 95,45.26 201.07,72.85 314.51,80.39 3.2,-3.29 6.5,-6.48 9.58,-9.92 41.34,-46.28 68.4,-103.39 84.56,-162.94 11.1,-40.93 17.25,-82.92 20.32,-125.28 -17.51,1.66 -35.43,2.49 -53.72,2.49 -49.82,0 -97.32,-6.37 -141.55,-18.54 v 0"
         id="path48-3" /></clipPath><clipPath
       clipPathUnits="userSpaceOnUse"
       id="clipPath34"><path
         d="m 1602.58,2875.54 h 728.273 v 278.871 H 1602.58 Z"
         id="path32" /></clipPath><clipPath
       clipPathUnits="userSpaceOnUse"
       id="clipPath50-3"><path
         d="m 1531.89,2983.57 h 1426.3 v 702.961 h -1426.3 z"
         id="path48-6" /></clipPath><clipPath
       clipPathUnits="userSpaceOnUse"
       id="clipPath20-3"><path
         d="m 21823.2,14953.1 c -137.8,401.1 -269.4,798.9 -394.7,1193.6 -125.2,394.7 -275.6,723.7 -451.1,986.8 -150.3,238.1 -319.5,394.8 -507.5,470 -87.7,37.5 -197.3,62.6 -328.9,75.1 -131.6,12.6 -291.4,0 -479.3,-37.6 v -958.6 c 0,-438.6 -84.6,-845.8 -253.8,-1221.7 -169.2,-376 -397.8,-708.1 -686,-996.3 -288.3,-288.2 -623.4,-513.7 -1005.7,-676.6 -382.2,-163 -780,-244.4 -1193.5,-244.4 -651.6,0 -1212.4,125.3 -1682.3,376 -469.9,250.6 -849,607.7 -1137.2,1071.3 -200.5,300.8 -344.6,632.9 -432.3,996.3 -87.8,363.4 -131.6,745.5 -131.6,1146.5 0,388.5 37.6,789.5 112.8,1203 l 1052.6,-188 c -50.2,-288.2 -75.2,-588.9 -75.2,-902.2 0,-664.1 137.9,-1215.5 413.5,-1654.1 175.4,-288.2 413.5,-513.7 714.3,-676.6 300.7,-163 689.2,-244.4 1165.4,-244.4 263.1,0 513.8,53.3 751.9,159.8 238,106.5 451,247.5 639,422.9 188,175.4 338.3,385.3 451.1,629.7 112.8,244.3 169.2,510.6 169.2,798.8 v 9172.7 c -37.6,200.5 -56.4,419.8 -56.4,657.9 0,200.5 15.7,407.3 47,620.3 31.3,213 84.6,438.6 159.8,676.7 l 1071.3,-319.6 c -62.6,-175.4 -103.3,-347.7 -122.1,-516.9 -18.8,-169.2 -28.2,-325.8 -28.2,-476.2 0,-488.7 112.8,-911.6 338.3,-1268.8 225.6,-357.1 507.5,-692.3 845.9,-1002.4 300.7,-275.7 617.1,-585.8 949.2,-930.4 332.1,-344.7 632.8,-714.3 902.2,-1109.1 269.4,-394.7 482.5,-808.2 639.1,-1246.8 156.6,-438.6 216.1,-883.4 178.6,-1334.5 -50.2,-485.6 -219.3,-874.1 -507.5,-1162.3 -288.2,-288.2 -645.4,-501.2 -1071.4,-639.1 0,0 12.5,-12.5 37.5,-37.5 225.6,-325.9 404.2,-695.5 535.7,-1105.9 131.6,-413.5 278.8,-858.4 441.8,-1334.6 288.2,-789.4 648.5,-1318.8 1080.7,-1594.5 432.4,-275.7 930.5,-413.5 1494.4,-413.5 375.9,0 770.7,37.5 1184.1,112.7 l 206.8,-1068.2 c -451.1,-115.9 -902.2,-172.4 -1353.3,-172.4 -776.9,0 -1497.5,209.9 -2161.6,629.7 -664.2,419.8 -1171.7,1131 -1522.6,2133.4 z m -1090.1,3759.3 c 162.9,0 332.1,18.8 507.5,56.4 175.4,37.6 338.3,94 488.7,169.2 150.4,75.2 278.8,169.2 385.3,281.9 106.5,112.8 178.6,250.7 216.2,413.6 75.2,350.9 15.6,726.8 -178.6,1127.7 -194.2,401 -429.2,780.1 -704.9,1137.2 -275.6,357.2 -551.3,670.5 -827,939.9 -275.7,269.4 -469.9,454.2 -582.7,554.5 -62.6,62.6 -125.3,122.1 -188,178.5 -62.6,56.4 -125.3,115.9 -187.9,178.6 v -5037.5 z m -5169.1,977.4 864.7,883.5 883.4,-883.5 -883.4,-864.6 z m 864.7,-864.6 883.4,-883.4 -883.4,-864.7 -864.7,864.7 z"
         clip-rule="evenodd"
         id="path18-1" /></clipPath><clipPath
       clipPathUnits="userSpaceOnUse"
       id="clipPath26"><path
         d="M 13139.3,12190 H 26860.7 V 27810 H 13139.3 Z"
         id="path24" /></clipPath><clipPath
       clipPathUnits="userSpaceOnUse"
       id="clipPath34-4"><path
         d="m 1602.58,2875.54 h 728.273 v 278.871 H 1602.58 Z"
         id="path32-7" /></clipPath><clipPath
       clipPathUnits="userSpaceOnUse"
       id="clipPath50-3-8"><path
         d="m 1531.89,2983.57 h 1426.3 v 702.961 h -1426.3 z"
         id="path48-6-4" /></clipPath><clipPath
       clipPathUnits="userSpaceOnUse"
       id="clipPath20-3-5"><path
         d="m 21823.2,14953.1 c -137.8,401.1 -269.4,798.9 -394.7,1193.6 -125.2,394.7 -275.6,723.7 -451.1,986.8 -150.3,238.1 -319.5,394.8 -507.5,470 -87.7,37.5 -197.3,62.6 -328.9,75.1 -131.6,12.6 -291.4,0 -479.3,-37.6 v -958.6 c 0,-438.6 -84.6,-845.8 -253.8,-1221.7 -169.2,-376 -397.8,-708.1 -686,-996.3 -288.3,-288.2 -623.4,-513.7 -1005.7,-676.6 -382.2,-163 -780,-244.4 -1193.5,-244.4 -651.6,0 -1212.4,125.3 -1682.3,376 -469.9,250.6 -849,607.7 -1137.2,1071.3 -200.5,300.8 -344.6,632.9 -432.3,996.3 -87.8,363.4 -131.6,745.5 -131.6,1146.5 0,388.5 37.6,789.5 112.8,1203 l 1052.6,-188 c -50.2,-288.2 -75.2,-588.9 -75.2,-902.2 0,-664.1 137.9,-1215.5 413.5,-1654.1 175.4,-288.2 413.5,-513.7 714.3,-676.6 300.7,-163 689.2,-244.4 1165.4,-244.4 263.1,0 513.8,53.3 751.9,159.8 238,106.5 451,247.5 639,422.9 188,175.4 338.3,385.3 451.1,629.7 112.8,244.3 169.2,510.6 169.2,798.8 v 9172.7 c -37.6,200.5 -56.4,419.8 -56.4,657.9 0,200.5 15.7,407.3 47,620.3 31.3,213 84.6,438.6 159.8,676.7 l 1071.3,-319.6 c -62.6,-175.4 -103.3,-347.7 -122.1,-516.9 -18.8,-169.2 -28.2,-325.8 -28.2,-476.2 0,-488.7 112.8,-911.6 338.3,-1268.8 225.6,-357.1 507.5,-692.3 845.9,-1002.4 300.7,-275.7 617.1,-585.8 949.2,-930.4 332.1,-344.7 632.8,-714.3 902.2,-1109.1 269.4,-394.7 482.5,-808.2 639.1,-1246.8 156.6,-438.6 216.1,-883.4 178.6,-1334.5 -50.2,-485.6 -219.3,-874.1 -507.5,-1162.3 -288.2,-288.2 -645.4,-501.2 -1071.4,-639.1 0,0 12.5,-12.5 37.5,-37.5 225.6,-325.9 404.2,-695.5 535.7,-1105.9 131.6,-413.5 278.8,-858.4 441.8,-1334.6 288.2,-789.4 648.5,-1318.8 1080.7,-1594.5 432.4,-275.7 930.5,-413.5 1494.4,-413.5 375.9,0 770.7,37.5 1184.1,112.7 l 206.8,-1068.2 c -451.1,-115.9 -902.2,-172.4 -1353.3,-172.4 -776.9,0 -1497.5,209.9 -2161.6,629.7 -664.2,419.8 -1171.7,1131 -1522.6,2133.4 z m -1090.1,3759.3 c 162.9,0 332.1,18.8 507.5,56.4 175.4,37.6 338.3,94 488.7,169.2 150.4,75.2 278.8,169.2 385.3,281.9 106.5,112.8 178.6,250.7 216.2,413.6 75.2,350.9 15.6,726.8 -178.6,1127.7 -194.2,401 -429.2,780.1 -704.9,1137.2 -275.6,357.2 -551.3,670.5 -827,939.9 -275.7,269.4 -469.9,454.2 -582.7,554.5 -62.6,62.6 -125.3,122.1 -188,178.5 -62.6,56.4 -125.3,115.9 -187.9,178.6 v -5037.5 z m -5169.1,977.4 864.7,883.5 883.4,-883.5 -883.4,-864.6 z m 864.7,-864.6 883.4,-883.4 -883.4,-864.7 -864.7,864.7 z"
         clip-rule="evenodd"
         id="path18-1-0" /></clipPath><clipPath
       clipPathUnits="userSpaceOnUse"
       id="clipPath26-3"><path
         d="M 13139.3,12190 H 26860.7 V 27810 H 13139.3 Z"
         id="path24-6" /></clipPath></defs><sodipodi:namedview
     id="namedview4"
     pagecolor="#505050"
     bordercolor="#eeeeee"
     borderopacity="1"
     inkscape:pageshadow="0"
     inkscape:pageopacity="0"
     inkscape:pagecheckerboard="0"
     showgrid="false"
     inkscape:zoom="0.60351562"
     inkscape:cx="594.01942"
     inkscape:cy="330.56311"
     inkscape:window-width="1440"
     inkscape:window-height="741"
     inkscape:window-x="0"
     inkscape:window-y="0"
     inkscape:window-maximized="1"
     inkscape:current-layer="g10" /><g
     id="g8"
     inkscape:groupmode="layer"
     inkscape:label="ink_ext_XXXXXX"
     transform="matrix(1.3333333,0,0,-1.3333333,0,666.66667)"><g
       id="g10"
       transform="scale(0.1)"><path
         d="m 3361.7496,-4116.6237 c -98.7511,2.1339 -191.9009,56.8442 -246.1962,144.4814 l -788.1126,1271.0509 -32.9269,53.436 -41.8478,67.5432 524.8453,282.0571 187.6036,-314.9842 20.094,-33.3418 612.8974,-1028.737 c 118.8155,-199.6067 -13.2181,-446.6328 -236.3568,-441.5056"
         style="fill:#000000;fill-opacity:1;fill-rule:nonzero;stroke:none;stroke-width:2.96372"
         id="path88-60" /><path
         d="m 2779.2601,-1992.4361 v -1.6893 c 0,-34.2014 -7.7058,-66.2689 -21.4871,-95.3133 -35.4164,-78.2422 -114.4884,-132.093 -205.9489,-132.093 h -104.7082 c -82.8954,0 -155.1508,44.0409 -194.4498,110.28 -20.9534,34.2013 -32.9269,74.3597 -32.9269,117.1263 v 1.6893 c 0,10.6693 -0.8891,21.3684 -2.5488,32.0675 -6.8462,49.9979 -29.9335,94.8686 -64.0756,128.6254 -41.1069,41.0476 -97.8917,66.6838 -160.3373,66.6838 -119.2602,0 -217.1519,-91.4605 -226.5173,-208.5867 -0.4148,-5.9571 -0.8594,-12.3883 -0.8594,-18.79 V -3900.361 c 0,-125.6617 -101.7742,-227.3766 -227.3766,-227.3766 h -104.649 c -125.7507,0 -227.4359,101.7149 -227.4359,227.3766 v 1907.9249 c 0,217.1222 88.0225,414.1503 230.3699,556.4682 142.2883,142.3178 339.3164,230.3699 556.4683,230.3699 415.8989,0 756.4897,-323.1048 784.2597,-732.5427 1.7486,-17.9602 2.2229,-35.9203 2.2229,-54.2954"
         style="fill:#000000;fill-opacity:1;fill-rule:nonzero;stroke:none;stroke-width:2.96372"
         id="path90-6" /><path
         d="m 2642.8103,-2701.0914 h -315.3695 l -32.9269,53.436 -41.8478,67.5432 524.8453,282.0571 187.6036,-314.9842 20.094,-33.3418 c -107.7313,-35.4461 -222.6939,-54.7103 -342.3987,-54.7103"
         style="fill:#000000;fill-opacity:1;fill-rule:nonzero;stroke:none;stroke-width:2.96372"
         id="path92-26" /><path
         d="m 1765.4008,-2701.0914 h -61.5268 c -79.5462,0 -150.9127,32.0675 -203.0148,83.7845 -51.7467,52.1318 -83.7548,123.9724 -83.7548,203.0148 0,158.5591 128.1513,286.7992 286.7696,286.7992 l 61.5268,1.6894 v -575.2879"
         style="fill:#000000;fill-opacity:1;fill-rule:nonzero;stroke:none;stroke-width:2.96372"
         id="path94-1" /><path
         d="m 2551.8241,-2221.5317 h -104.7082 c -82.8954,0 -155.1508,44.0409 -194.4498,110.28 l 395.3012,11.5289 c 37.6688,0 74.3893,3.4379 109.8057,10.2841 -35.4164,-78.2422 -114.4884,-132.093 -205.9489,-132.093"
         style="fill:#2b3995;fill-opacity:1;fill-rule:nonzero;stroke:none;stroke-width:2.96372"
         id="path96-8" /><path
         d="M 2690.1706,-393.09394 H 2052.2 c -158.3515,0 -286.7992,-128.418 -286.7992,-286.8289 0,-158.3812 128.4477,-286.7992 286.7992,-286.7992 h 637.9706 c 292.0154,0 528.787,-236.74196 528.787,-528.75746 0,-292.045 -231.7926,-500.928 -523.8079,-500.928 l -944.0636,-27.8886 c -158.3812,0 -286.7993,-128.3884 -286.7993,-286.7993 0,-158.4109 128.4181,-286.7992 286.7993,-286.7992 h 939.0845 c 608.8371,0 1162.3713,493.578 1162.3713,1102.4151 0,608.80756 -553.5342,1102.38556 -1162.3713,1102.38556"
         style="fill:#000000;fill-opacity:1;fill-rule:nonzero;stroke:none;stroke-width:2.96372"
         id="path98-7" /><path
         d="m 1637.5755,-678.41134 c 0,-157.5513 -127.7363,-285.2878 -285.3767,-285.2878 -157.5513,0 -285.258,127.7365 -285.258,285.2878 0,157.581 127.7067,285.3174 285.258,285.3174 157.6404,0 285.3767,-127.7364 285.3767,-285.3174"
         style="fill:#000000;fill-opacity:1;fill-rule:nonzero;stroke:none;stroke-width:2.96372"
         id="path100-9" /><path
         d="m 3454.1807,560.67282 c -99.4394,2.1484 -193.2383,57.2403 -247.9122,145.4883 l -793.605,1279.90918 -33.1564,53.8081 -42.1394,68.0141 528.5031,284.023 188.911,-317.1794 20.2339,-33.5743 617.169,-1035.9069 c 119.6437,-200.99748 -13.3103,-449.74518 -238.004,-444.58208"
         style="fill:#ffffff;fill-opacity:1;fill-rule:nonzero;stroke:none;stroke-width:2.98436"
         id="path88-9-0" /><path
         d="m 2867.6316,2699.6643 v -1.7011 c 0,-34.4397 -7.7595,-66.731 -21.6366,-95.9775 -35.6634,-78.7876 -115.2866,-133.0136 -207.3844,-133.0136 h -105.4381 c -83.4728,0 -156.232,44.3478 -195.8048,111.0487 -21.0995,34.4397 -33.1563,74.8779 -33.1563,117.9424 v 1.7011 c 0,10.7437 -0.8954,21.5173 -2.5667,32.291 -6.8938,50.3464 -30.1422,95.5297 -64.5222,129.5219 -41.3933,41.3337 -98.5738,67.1485 -161.4548,67.1485 -120.0912,0 -218.665,-92.098 -228.0956,-210.0404 -0.418,-5.9986 -0.8656,-12.4747 -0.8656,-18.921 V 778.44262 c 0,-126.5375 -102.4836,-228.9613 -228.9612,-228.9613 h -105.3785 c -126.6269,0 -229.021,102.4238 -229.021,228.9613 V 2699.6643 c 0,218.6354 88.6362,417.0367 231.9756,560.3464 143.2799,143.3098 341.6813,231.9756 560.3463,231.9756 418.7976,0 761.762,-325.3567 789.7256,-737.6482 1.7608,-18.0853 2.2383,-36.1706 2.2383,-54.6738"
         style="fill:#ffffff;fill-opacity:1;fill-rule:nonzero;stroke:none;stroke-width:2.98436"
         id="path90-1-7" /><path
         d="m 2730.2311,1986.0703 h -317.5676 l -33.1564,53.8081 -42.1394,68.0141 528.5031,284.023 188.911,-317.1794 20.2339,-33.5743 c -108.4819,-35.6932 -224.2458,-55.0915 -344.7846,-55.0915"
         style="fill:#b3b3b3;fill-opacity:1;fill-rule:nonzero;stroke:none;stroke-width:2.98436"
         id="path92-2-8" /><path
         d="m 1846.7065,1986.0703 h -61.9556 c -80.1007,0 -151.9645,32.2909 -204.4298,84.3683 -52.1071,52.4952 -84.3385,124.8361 -84.3385,204.4296 0,159.6641 129.0445,288.7982 288.7683,288.7982 l 61.9556,1.7011 v -579.2972"
         style="fill:#b3b3b3;fill-opacity:1;fill-rule:nonzero;stroke:none;stroke-width:2.98436"
         id="path94-7-6" /><path
         d="m 2638.6106,2468.9721 h -105.4381 c -83.4728,0 -156.232,44.3478 -195.8048,111.0487 l 398.056,11.6088 c 37.9314,0 74.9079,3.4618 110.5713,10.3558 -35.6634,-78.7875 -115.2866,-133.0136 -207.3844,-133.0136"
         style="fill:#ffffff;fill-opacity:1;fill-rule:nonzero;stroke:none;stroke-width:2.98436"
         id="path96-0-8" /><path
         d="m 2777.9213,4310.1525 h -642.4168 c -159.4551,0 -288.798,-129.313 -288.798,-288.8279 0,-159.485 129.3429,-288.798 288.798,-288.798 h 642.4168 c 294.0505,0 532.4722,-238.3919 532.4722,-532.4422 0,-294.0803 -233.4079,-504.4191 -527.4584,-504.4191 l -950.6432,-28.0829 c -159.485,0 -288.7979,-129.2832 -288.7979,-288.7982 0,-159.5149 129.3129,-288.798 288.7979,-288.798 h 945.6294 c 613.0804,0 1170.4721,497.018 1170.4721,1110.0982 0,613.0504 -557.3917,1110.0681 -1170.4721,1110.0681"
         style="fill:#ffffff;fill-opacity:1;fill-rule:nonzero;stroke:none;stroke-width:2.98436"
         id="path98-9-8" /><path
         d="m 1717.9904,4022.847 c 0,-158.6495 -128.6266,-287.2763 -287.3656,-287.2763 -158.6493,0 -287.2461,128.6265 -287.2461,287.2763 0,158.6791 128.5968,287.3055 287.2461,287.3055 158.739,0 287.3656,-128.6264 287.3656,-287.3055"
         style="fill:#ffffff;fill-opacity:1;fill-rule:nonzero;stroke:none;stroke-width:2.98436"
         id="path100-3-4" /></g></g></svg>
